<svg width="39" height="34" viewBox="0 0 39 34" fill="none" xmlns="http://www.w3.org/2000/svg">
<g clip-path="url(#clip0_211_2080)">
<path d="M38.8874 13.9507C38.8913 13.9217 38.8913 13.8924 38.8874 13.8634C38.8911 13.8397 38.8911 13.8156 38.8874 13.7919L38.6037 11.7506C38.5628 11.5063 38.4534 11.2781 38.2878 11.0913L38.2391 11.0357L38.1501 10.9483L33.2403 6.80213L33.378 6.93717C33.2653 6.805 33.1239 6.69928 32.9641 6.62779C32.8042 6.55631 32.63 6.52089 32.4544 6.52413H30.9636C30.7212 6.51942 30.4843 6.59498 30.2912 6.73859C30.0883 6.59585 29.8441 6.52068 29.5944 6.52413H28.1036C27.9081 6.52102 27.7152 6.5686 27.5445 6.66205C27.3738 6.7555 27.2313 6.89151 27.1314 7.0563C26.9774 7.29168 26.9196 7.57528 26.9693 7.8506L27.1557 9.13734C27.0322 9.06873 26.8925 9.03313 26.7506 9.03409H19.5317C19.2727 9.03569 19.0197 9.11011 18.8025 9.24854C18.5926 9.37739 18.424 9.5619 18.3165 9.78071L17.7574 9.31209C17.5374 9.1125 17.247 9.00432 16.9472 9.01026H5.62067C5.36075 9.0149 5.10661 9.08609 4.88342 9.21677C4.57807 9.39199 4.3543 9.67688 4.25955 10.0111L0.662281 21.8063C0.595067 22.0006 0.588455 22.2102 0.643292 22.4083C0.698128 22.6063 0.81193 22.7839 0.970159 22.9183C1.01139 22.9525 1.05468 22.9844 1.09979 23.0136C1.09979 23.0136 1.02686 22.9659 0.986354 22.9262L5.89616 27.0804C6.10386 27.2678 6.37541 27.3726 6.6577 27.3742H18.0734C18.3341 27.3676 18.5884 27.2936 18.8107 27.1598C18.9364 27.0924 19.0488 27.0037 19.1428 26.8976L19.1834 26.842L19.2482 26.7626L19.2968 26.6752L19.8315 27.128C20.0362 27.308 20.3019 27.4071 20.5769 27.406H32.0168C32.2773 27.3975 32.5311 27.3237 32.7541 27.1916C32.877 27.1201 32.9888 27.0318 33.0863 26.9294L33.1268 26.8738L33.1916 26.7944C33.2261 26.7442 33.256 26.691 33.2807 26.6355C33.3072 26.5874 33.3289 26.5368 33.3456 26.4846L36.6269 15.7141V15.6188C36.6309 15.5818 36.6309 15.5445 36.6269 15.5076V15.4361C36.6308 15.4124 36.6308 15.3883 36.6269 15.3646C36.6305 15.3143 36.6305 15.2639 36.6269 15.2136H37.6801C37.7718 15.2219 37.864 15.2219 37.9556 15.2136H38.0285C38.0878 15.1963 38.1449 15.1723 38.1987 15.1422H38.2797L38.4255 15.031L38.4903 14.9833L38.6037 14.8403V14.7927L38.6848 14.6577C38.6803 14.6314 38.6803 14.6045 38.6848 14.5782C38.6805 14.5654 38.6805 14.5514 38.6848 14.5385C38.702 14.492 38.7156 14.4441 38.7253 14.3955C38.7215 14.3799 38.7215 14.3635 38.7253 14.3479C38.7214 14.3242 38.7214 14.3 38.7253 14.2764C38.7253 14.2764 38.8874 13.9666 38.8874 13.9507Z" fill="black"/>
<path d="M17.2794 9.91603C17.3224 9.95416 17.3524 10.0043 17.3655 10.0597C17.3785 10.1151 17.3739 10.173 17.3523 10.2258L13.7632 22.0131C13.718 22.1417 13.6255 22.2493 13.5039 22.3149C13.4049 22.3798 13.2904 22.4181 13.1717 22.4261H1.76414C1.66672 22.4215 1.57442 22.3819 1.50487 22.3149C1.4635 22.2774 1.43446 22.2286 1.42147 22.1749C1.40848 22.1211 1.41214 22.0648 1.43196 22.0131L5.02923 10.2258C5.07068 10.0955 5.16023 9.98502 5.28039 9.91603C5.38097 9.85579 5.49496 9.82036 5.61257 9.81277H17.0201C17.1168 9.81368 17.2094 9.8506 17.2794 9.91603ZM11.3244 19.6381L13.4715 12.6007H7.45983L5.32089 19.6381H11.3244ZM28.1684 10.0352C28.2073 10.0795 28.256 10.1147 28.3107 10.1381C28.3654 10.1614 28.4247 10.1724 28.4844 10.1702H29.9671C30.0235 10.1707 30.0791 10.1572 30.1288 10.1308C30.1784 10.1044 30.2203 10.066 30.2506 10.0193C30.2769 9.9828 30.2955 9.9415 30.3053 9.89783C30.315 9.85418 30.3157 9.80904 30.3073 9.76511L30.0156 7.66819C29.9879 7.57114 29.938 7.48152 29.8699 7.40607C29.8309 7.36173 29.7823 7.32656 29.7276 7.30318C29.6728 7.27981 29.6135 7.26882 29.5539 7.27104H28.0712C28.0147 7.2705 27.9591 7.28408 27.9095 7.31048C27.8598 7.33689 27.8179 7.37525 27.7876 7.42196C27.7309 7.53316 27.7066 7.60464 27.7309 7.66819L28.0307 9.76511C28.0461 9.86722 28.0943 9.96183 28.1684 10.0352ZM32.8757 7.6523C32.8479 7.55525 32.798 7.46563 32.7298 7.39018C32.6925 7.346 32.6453 7.31085 32.5919 7.28743C32.5386 7.26401 32.4804 7.25297 32.4219 7.25515H30.9312C30.8757 7.2536 30.8207 7.26681 30.7722 7.29338C30.7237 7.31995 30.6835 7.35889 30.6557 7.40607C30.6018 7.47654 30.5785 7.56505 30.5909 7.6523L30.8906 9.74922C30.9095 9.85025 30.9572 9.94393 31.0284 10.0193C31.068 10.0628 31.1168 10.0973 31.1713 10.1206C31.2259 10.1439 31.2849 10.1554 31.3444 10.1543H32.8351C32.8906 10.155 32.9451 10.1415 32.9934 10.115C33.0418 10.0885 33.0822 10.05 33.1106 10.0034C33.1388 9.96786 33.1585 9.92658 33.1683 9.8826C33.1782 9.83862 33.1778 9.79305 33.1673 9.74922L32.8757 7.6523ZM26.864 10.8295L26.7181 9.79688H19.5317C19.4189 9.80298 19.3097 9.83864 19.2157 9.90014C19.1561 9.93204 19.1041 9.97626 19.0636 10.0297C19.023 10.0832 18.9948 10.1447 18.9808 10.2099L18.3812 12.1797C18.3573 12.229 18.3491 12.2842 18.3578 12.3381C18.3665 12.3919 18.3916 12.442 18.4298 12.4816C18.4982 12.5445 18.5873 12.5812 18.681 12.5848H27.415L25.2679 19.6223H16.5583C16.446 19.6248 16.3366 19.6578 16.2424 19.7175C16.1278 19.7889 16.0441 19.8992 16.0074 20.0273L15.3997 21.9972C15.3799 22.0477 15.3747 22.1026 15.3847 22.1559C15.3947 22.2092 15.4195 22.2587 15.4564 22.299C15.5226 22.3662 15.6125 22.406 15.7076 22.4102H27.1476C27.2659 22.4002 27.3799 22.362 27.4797 22.299C27.5994 22.2331 27.6891 22.1253 27.7309 21.9972L31.0203 11.2266H27.3177C27.2589 11.2277 27.2006 11.217 27.1463 11.1952C27.0919 11.1733 27.0427 11.1408 27.0018 11.0995C26.9348 11.0275 26.8874 10.9401 26.864 10.8453V10.8295Z" fill="white"/>
</g>
<defs>
<clipPath id="clip0_211_2080">
<rect width="38.2838" height="20.8821" fill="white" transform="translate(0.606514 6.52393)"/>
</clipPath>
</defs>
</svg>
