<svg width="34" height="34" viewBox="0 0 34 34" fill="none" xmlns="http://www.w3.org/2000/svg">
<g clip-path="url(#clip0_211_2056)">
<path d="M31.7851 9.7008C31.7851 9.72434 31.7851 9.75376 31.779 9.77141C31.7483 10.0009 31.7483 10.2304 31.7667 10.4657C31.779 10.5246 31.7912 10.5834 31.8403 10.6305C31.92 10.7188 32.0426 10.7011 32.0917 10.5952C32.1162 10.5422 32.1162 10.4893 32.1039 10.4363C32.0426 10.2127 32.0303 9.97736 32.0242 9.74787C32.0242 9.73611 32.0242 9.71845 32.0242 9.7008C32.0917 9.69492 32.153 9.68903 32.2081 9.68903C32.2511 9.68315 32.2879 9.67726 32.3185 9.65961C32.4104 9.61254 32.4105 9.51251 32.3124 9.46543C32.2756 9.44778 32.2265 9.44189 32.1836 9.44189C32.0303 9.44778 31.8771 9.44778 31.7238 9.44778C31.6687 9.44778 31.6135 9.45367 31.5583 9.45955C31.5276 9.46543 31.4908 9.46543 31.4663 9.48309C31.4234 9.50074 31.3989 9.53016 31.3989 9.57135C31.405 9.61254 31.4234 9.63607 31.4663 9.65373C31.4908 9.67138 31.5215 9.67726 31.5521 9.67726C31.6257 9.68315 31.7054 9.69492 31.7851 9.7008ZM33.4711 9.97147C33.4711 9.97736 33.4772 9.98324 33.4772 9.98324C33.5017 10.1421 33.5263 10.2951 33.5446 10.4481C33.5508 10.501 33.5569 10.5481 33.5937 10.5893C33.6734 10.6893 33.796 10.6776 33.8512 10.5717C33.8757 10.5187 33.8818 10.4657 33.8696 10.4069C33.8328 10.2304 33.8144 10.0539 33.7776 9.88321C33.7531 9.77729 33.7225 9.67726 33.6918 9.58312C33.6734 9.52428 33.6305 9.48308 33.5569 9.4772C33.4834 9.46543 33.4282 9.50074 33.3975 9.5537C33.3607 9.60077 33.3301 9.64784 33.3055 9.7008C33.2626 9.79495 33.2259 9.8891 33.1768 9.97736C33.1707 10.0009 33.1645 10.0185 33.1523 10.0362C33.1462 10.0244 33.14 10.0185 33.14 10.0185C33.0603 9.87144 32.9868 9.72434 32.9071 9.58312C32.8948 9.57135 32.8887 9.55958 32.8825 9.54781C32.8458 9.49486 32.8028 9.46543 32.7354 9.46543C32.6741 9.47132 32.625 9.50662 32.5944 9.55958C32.5821 9.58312 32.5821 9.60077 32.576 9.62431C32.5515 9.8126 32.5208 10.0009 32.4963 10.1892C32.484 10.2951 32.4779 10.401 32.4779 10.5069C32.4718 10.5305 32.4779 10.5599 32.4901 10.5834C32.5024 10.6305 32.5392 10.6599 32.5882 10.6658C32.6496 10.6717 32.6925 10.654 32.7109 10.607C32.7292 10.5717 32.7354 10.5422 32.7415 10.5128C32.7661 10.4069 32.7844 10.3069 32.8028 10.2068C32.8151 10.148 32.8212 10.1009 32.8396 10.0362C32.8519 10.0597 32.8641 10.0774 32.8764 10.095C32.9316 10.1657 32.9868 10.2363 33.0542 10.2951C33.1216 10.3422 33.1768 10.3363 33.232 10.2833C33.2443 10.2716 33.2504 10.2657 33.2626 10.2539C33.3178 10.1715 33.3853 10.0892 33.4404 10.0068C33.4527 9.99501 33.4588 9.98324 33.4711 9.97147Z" fill="#3A3B7B"/>
<path d="M19.3449 9.81647C19.3022 9.92829 19.2941 10.0089 19.3138 10.0758C19.3355 10.1669 19.3919 10.1967 19.4685 10.1735C20.1886 10.0026 21.7677 10.4877 22.3523 10.6229C22.4902 10.6513 22.6023 10.4805 22.5082 10.3273C22.3709 10.179 20.7926 9.544 20.1903 9.50938C19.9543 9.49657 19.5322 9.43847 19.3449 9.81647Z" fill="#3A3B7B"/>
<path d="M25.5162 7.76108C25.5929 7.80359 25.6358 7.84415 25.657 7.88946C25.6885 7.9489 25.6719 7.99003 25.6189 8.01101C25.1429 8.23398 24.5095 9.19392 24.2538 9.525C24.1918 9.60116 24.0488 9.5569 24.0273 9.43166C24.0317 9.29004 24.5932 8.24829 24.9065 7.96455C25.0297 7.85377 25.2331 7.63641 25.5162 7.76108Z" fill="#3A3B7B"/>
<path d="M21.7254 7.28845C21.8176 7.22175 21.9134 7.19838 21.9623 7.24173C22.6805 7.83123 23.0614 8.76475 23.2972 9.61937C23.3061 9.63928 23.3067 9.66785 23.2996 9.69766C23.2966 9.72314 23.2772 9.75005 23.2464 9.77087C23.2135 9.79386 23.1852 9.80086 23.1719 9.78105C22.8571 9.37014 21.0593 7.77136 21.7254 7.28845Z" fill="#3A3B7B"/>
<path d="M6.51685 17.5091C6.68898 17.3861 6.87612 17.2837 7.07414 17.2042C7.28132 17.1474 7.50215 17.1568 7.70325 17.2311C7.90431 17.3054 8.07476 17.4405 8.1887 17.6161C8.29063 17.7911 8.3305 17.9933 8.30236 18.192C8.27423 18.3907 8.17958 18.5753 8.03265 18.7179C7.91875 18.8335 7.78943 18.9342 7.64815 19.0174C7.01843 19.4079 6.3831 19.7769 5.7478 20.1674C5.6178 20.2651 5.4799 20.3528 5.3354 20.4295C5.11562 20.5347 4.86444 20.5628 4.6253 20.5091C4.38616 20.4554 4.1741 20.3232 4.02578 20.1353C3.91491 20.0023 3.82134 19.8568 3.74714 19.7021C3.14527 18.4879 2.52111 17.2791 1.94154 16.0435C1.67404 15.5087 1.4567 14.8936 1.24493 14.2999C1.15331 14.1274 1.13542 13.9274 1.19506 13.7424C1.25471 13.5574 1.38719 13.4021 1.56432 13.3094C1.74146 13.2167 1.94927 13.1941 2.14356 13.2462C2.33785 13.2983 2.50329 13.4211 2.6047 13.5885C2.91641 13.9861 3.19233 14.4084 3.42949 14.8508C4.03135 15.9205 4.60536 16.9902 5.18494 18.0279C5.21868 18.0852 5.2559 18.1406 5.29639 18.1937C5.73262 18.0177 6.14292 17.7875 6.51685 17.5091Z" fill="#3A3B7B"/>
<path d="M12.7398 17.1359C11.3633 18.6816 9.05616 18.2912 7.89701 16.3015C7.07221 14.8894 6.92733 12.5574 8.72181 11.0865C9.105 10.7785 9.5632 10.5688 10.0537 10.4767C10.6551 10.394 11.2684 10.4958 11.8058 10.7677C12.3433 11.0395 12.7775 11.4675 13.0463 11.9904C14.0271 13.702 13.8878 15.8842 12.7398 17.1359ZM12.1825 13.5308C12.0363 13.1102 11.7429 12.7511 11.3522 12.5146C11.1311 12.3633 10.8624 12.2898 10.5914 12.3063C10.3204 12.3229 10.0636 12.4285 9.86423 12.6055C9.06733 13.2848 8.90011 14.8948 9.47968 15.8522C9.55357 16.0083 9.66205 16.147 9.79763 16.2587C9.93321 16.3704 10.0926 16.4523 10.2646 16.4986C10.4366 16.545 10.617 16.5547 10.7933 16.5271C10.9697 16.4995 11.1376 16.4353 11.2853 16.3389C11.7173 16.0174 12.0342 15.5748 12.192 15.0725C12.3498 14.5702 12.3407 14.0332 12.1658 13.5362L12.1825 13.5308Z" fill="#3A3B7B"/>
<path d="M18.3572 14.2045C18.2163 14.2335 18.0707 14.2353 17.9291 14.2095C17.7874 14.1838 17.6526 14.1312 17.5325 14.0547C17.4273 13.997 17.3369 13.9177 17.2675 13.8224C17.1982 13.7271 17.1517 13.6183 17.1315 13.5037C17.1112 13.3891 17.1177 13.2717 17.1504 13.1598C17.1831 13.0479 17.2413 12.9443 17.3207 12.8566C17.459 12.6802 17.6554 12.554 17.878 12.4982C18.459 12.3364 19.0572 12.2377 19.6613 12.2041C19.794 12.1892 19.9285 12.2 20.0568 12.2358C20.1851 12.2716 20.3047 12.3315 20.4085 12.4123C20.5123 12.493 20.5983 12.5928 20.6614 12.7058C20.7244 12.8189 20.7634 12.9429 20.7758 13.0705C20.95 13.6977 20.9691 14.3553 20.8316 14.9907C20.33 17.0446 18.6024 17.7506 16.6631 17.0928C16.1187 16.9169 15.6414 16.5891 15.2922 16.1514C14.8264 15.6243 14.4962 14.9996 14.328 14.3275C14.1919 13.729 14.2068 13.108 14.3716 12.5163C14.5364 11.9245 14.8463 11.3791 15.2754 10.9257C15.6827 10.4329 16.2113 10.0451 16.8136 9.79714C17.1941 9.59581 17.6395 9.53856 18.0619 9.63668C18.1577 9.66213 18.2447 9.71172 18.3138 9.78032C18.3829 9.84891 18.4317 9.934 18.455 10.0268C18.4783 10.1195 18.4753 10.2166 18.4464 10.3079C18.4174 10.3992 18.3636 10.4814 18.2904 10.546C18.1512 10.6669 18 10.7744 17.8389 10.8669C17.3435 11.1697 16.9124 11.5599 16.5683 12.0168C16.3428 12.3125 16.1875 12.6521 16.1134 13.0115C16.0392 13.371 16.0481 13.7416 16.1393 14.0975C16.2656 14.5827 16.5461 15.0182 16.9417 15.3437C18.1677 16.4135 19.7616 15.3812 19.4829 13.921C19.0761 14.0173 18.7195 14.1189 18.3572 14.2045Z" fill="#3A3B7B"/>
<path d="M25.8473 17.2211C24.0361 18.2908 21.9741 17.2211 21.5227 14.9747C21.1939 13.3701 21.8181 11.1236 24.0027 10.2678C24.4675 10.0896 24.9716 10.0271 25.4683 10.0859C26.0651 10.1908 26.6126 10.4728 27.0335 10.8921C27.4544 11.3115 27.7276 11.847 27.8145 12.4233C28.1823 14.3328 27.3464 16.3707 25.8473 17.2211ZM26.477 13.6214C26.4765 13.1771 26.3127 12.7471 26.0145 12.4073C25.8551 12.1971 25.6246 12.0464 25.3624 11.9811C25.1002 11.9157 24.8225 11.9397 24.5766 12.0489C23.5958 12.4554 22.9048 13.9316 23.1556 15.0175C23.1747 15.1878 23.2324 15.3522 23.3246 15.4989C23.4168 15.6457 23.5413 15.7714 23.6894 15.8672C23.8375 15.9629 24.0056 16.0265 24.182 16.0534C24.3583 16.0803 24.5387 16.0699 24.7104 16.023C25.2288 15.8492 25.6777 15.5243 25.9944 15.0938C26.3112 14.6632 26.4799 14.1485 26.477 13.6214Z" fill="#3A3B7B"/>
<path d="M29.646 17.6707C29.6187 17.8665 29.5115 18.0438 29.3479 18.1637C29.1843 18.2835 28.9779 18.3361 28.7739 18.3099C28.5699 18.2837 28.3852 18.1807 28.2603 18.0237C28.1354 17.8668 28.0806 17.6686 28.108 17.4728C28.1353 17.2771 28.2426 17.0997 28.4061 16.9799C28.5697 16.86 28.7761 16.8074 28.9801 16.8337C29.1841 16.8599 29.3688 16.9628 29.4937 17.1198C29.6186 17.2768 29.6734 17.475 29.646 17.6707ZM29.1612 10.4553C29.2672 10.3 29.4227 10.1816 29.6045 10.118C29.7863 10.0544 29.9846 10.0489 30.1699 10.1023C30.3583 10.1475 30.5247 10.2535 30.6414 10.4025C30.7581 10.5515 30.8179 10.7344 30.8108 10.9207C30.7862 11.2194 30.7397 11.5161 30.6715 11.8085C30.4876 12.7981 30.3092 13.7875 30.1142 14.7664C30.025 15.1568 29.908 15.5312 29.7798 15.927C29.7352 16.0508 29.6607 16.1626 29.5625 16.2533C29.5014 16.3216 29.4234 16.3739 29.3356 16.4055C29.2479 16.4372 29.1532 16.447 29.0604 16.4342C28.9677 16.4214 28.8797 16.3864 28.8048 16.3324C28.7299 16.2783 28.6704 16.2069 28.6318 16.1249C28.5656 15.9779 28.5296 15.8198 28.5259 15.6596C28.5259 14.9964 28.5259 14.3278 28.5705 13.6592C28.6463 12.705 28.7953 11.7575 29.0163 10.8244C29.0424 10.6994 29.0914 10.5798 29.1612 10.4714V10.4553Z" fill="#3A3B7B"/>
<path fill-rule="evenodd" clip-rule="evenodd" d="M4.16234 21.9687C4.09654 22.1097 4.0785 22.2668 4.11065 22.4181C4.13204 22.6175 4.17903 22.8136 4.25053 23.002C4.33981 23.2326 4.43971 23.4607 4.56288 23.7419C4.59121 23.8066 4.62081 23.8741 4.65179 23.9452C4.8179 24.326 5.02632 24.8128 5.30433 25.5172C5.38302 25.7174 5.4529 25.9191 5.52326 26.1223C5.55169 26.2043 5.58022 26.2867 5.60942 26.3692C5.71409 26.6627 5.89419 26.9263 6.13292 27.1352C6.23429 27.25 6.36875 27.3337 6.51952 27.3755C6.67323 27.4182 6.83672 27.4155 6.9888 27.3678C7.14088 27.32 7.27445 27.2295 7.37217 27.1079C7.46798 26.9886 7.52495 26.8449 7.53603 26.6948C7.59819 26.4024 7.57697 26.0992 7.47452 25.8173C7.31193 25.3492 7.12671 24.8804 6.91313 24.4219L6.91215 24.4199C6.56079 23.7026 6.20363 22.9902 5.82957 22.2775L5.82677 22.2725C5.71727 22.0869 5.57496 21.9209 5.40625 21.782C5.29672 21.6581 5.14563 21.5745 4.97878 21.5457C4.80838 21.5163 4.63263 21.546 4.48292 21.6294C4.34129 21.707 4.22902 21.8258 4.16234 21.9687Z" fill="#3A3B7B"/>
<path fill-rule="evenodd" clip-rule="evenodd" d="M9.52889 20.2025C8.97797 20.0655 8.4026 20.0456 7.84289 20.144C7.40936 20.185 6.98299 20.281 6.68692 20.4711C6.53633 20.5678 6.41459 20.6921 6.34686 20.85C6.27877 21.0088 6.27008 21.1903 6.32588 21.3927C6.42776 21.7633 6.56007 22.1236 6.69192 22.4828L6.71328 22.5409L6.71379 22.5422C7.11077 23.5856 7.51153 24.6255 7.91594 25.6619C7.96309 25.8252 8.02978 25.9827 8.11466 26.1313L8.11625 26.1341C8.22837 26.3187 8.37217 26.4838 8.54159 26.6225C8.62632 26.6987 8.73111 26.7515 8.84472 26.7751C8.95946 26.7988 9.07878 26.792 9.18968 26.7551C9.30063 26.7182 9.39887 26.6529 9.47374 26.5661C9.5474 26.4807 9.59563 26.3778 9.61334 26.2684C9.68644 25.971 9.66302 25.6592 9.54618 25.375C9.50973 25.2793 9.48113 25.1816 9.45098 25.0787C9.44093 25.0444 9.43075 25.0094 9.42 24.9739C10.3457 24.6266 11.3307 24.1596 11.677 23.0732C11.8127 22.6978 11.824 22.2913 11.7094 21.9094C11.5947 21.5271 11.3594 21.1883 11.0359 20.9395C10.5956 20.5913 10.0812 20.3397 9.52889 20.2025ZM8.00179 21.535C8.02002 21.5299 8.03838 21.5252 8.0568 21.5209C8.65946 21.43 9.27605 21.5511 9.79304 21.862C10.0209 22.0141 10.1142 22.183 10.1302 22.3456C10.1468 22.513 10.0834 22.6944 9.95597 22.8688C9.71523 23.1982 9.27591 23.4619 8.87907 23.511C8.58978 22.8716 8.29599 22.2062 8.00179 21.535Z" fill="#3A3B7B"/>
<path d="M13.2018 19.0321C13.8579 18.7413 14.6706 18.691 15.3065 18.8955C15.4667 18.9403 15.6057 19.0371 15.6996 19.1695C15.793 19.301 15.8361 19.4595 15.8217 19.618C15.8208 19.7209 15.7945 19.8221 15.745 19.9134C15.6946 20.0063 15.6216 20.0862 15.5323 20.1464C15.4429 20.2066 15.3398 20.2452 15.2316 20.259C15.1233 20.2729 15.0133 20.2615 14.9106 20.2259L14.9028 20.2232L14.8955 20.2195C14.8429 20.1931 14.7871 20.1732 14.7294 20.1603L14.7258 20.1595C14.2784 20.0454 13.8564 20.2344 13.7023 20.4666C13.6288 20.5773 13.6196 20.6891 13.6809 20.7907C13.7464 20.8996 13.9073 21.0218 14.2327 21.1088C14.3222 21.1324 14.4139 21.1552 14.507 21.1783C14.7643 21.2422 15.0317 21.3087 15.2903 21.4007L15.2913 21.4011C16.4843 21.8368 16.9285 22.739 16.7764 23.5877C16.626 24.4269 15.8957 25.1907 14.7976 25.3708C14.398 25.4558 13.9821 25.4393 13.5912 25.3228C13.1993 25.2059 12.846 24.9928 12.5665 24.7043L12.5592 24.6968C12.4709 24.5881 12.4116 24.4604 12.3853 24.3249C12.361 24.2027 12.3738 24.0763 12.4219 23.9607C12.4698 23.8459 12.5507 23.7465 12.6552 23.674C12.7655 23.5919 12.8986 23.5426 13.0378 23.5323C13.1765 23.5221 13.3154 23.5511 13.4372 23.6156C13.5589 23.672 13.6721 23.744 13.7737 23.8296L13.7757 23.8311C13.9554 23.9889 14.1729 24.03 14.3814 23.9919C14.593 23.9533 14.7919 23.8332 14.9199 23.6737C15.047 23.5153 15.0981 23.3271 15.0375 23.1445C14.9765 22.9604 14.7933 22.7543 14.3907 22.5819C14.2854 22.539 14.1763 22.5044 14.0628 22.4707C14.0321 22.4617 14.001 22.4526 13.9695 22.4434C13.8856 22.419 13.7992 22.3938 13.7145 22.3661C13.6562 22.347 13.5983 22.3289 13.541 22.311C13.3844 22.262 13.2317 22.2143 13.0848 22.1503C12.765 22.0458 12.4887 21.8451 12.297 21.578C12.1046 21.3098 12.0077 20.989 12.0209 20.6637C12.0219 19.8708 12.5422 19.3245 13.2018 19.0321Z" fill="#3A3B7B"/>
<path d="M21.5196 18.9473C21.3923 18.8877 21.2517 18.8594 21.1102 18.8649C20.9688 18.8705 20.831 18.9098 20.7093 18.9793C20.5884 19.0483 20.4872 19.1449 20.4147 19.2606C20.3482 19.358 20.3021 19.4669 20.2792 19.5813C20.2562 19.6956 20.2568 19.813 20.2808 19.927C20.3045 20.0735 20.3307 20.216 20.3567 20.3566C20.3996 20.5891 20.4414 20.8164 20.469 21.0482L20.47 21.0541C20.5328 21.4176 20.5656 21.7852 20.5686 22.1536L20.5689 22.1588C20.5903 22.5566 20.4491 22.9467 20.1754 23.2463L20.1711 23.2516C20.082 23.3611 19.963 23.4447 19.8272 23.493C19.6915 23.5414 19.5445 23.5525 19.4026 23.5251C19.2606 23.4978 19.1294 23.4331 19.0236 23.3383C18.9178 23.2434 18.8415 23.1219 18.8034 22.9878C18.7221 22.7054 18.675 22.4148 18.663 22.122L18.8019 19.9996C18.804 19.9719 18.8063 19.9435 18.8087 19.9148C18.814 19.8503 18.8194 19.7846 18.8217 19.7234C18.8249 19.6333 18.8221 19.5406 18.8003 19.4529C18.7779 19.3633 18.7353 19.278 18.6598 19.2054C18.585 19.1335 18.484 19.0804 18.357 19.0443C18.1273 18.9805 17.9331 18.9825 17.7712 19.0485C17.6093 19.1144 17.4983 19.2368 17.4198 19.3782C17.3419 19.5184 17.2919 19.6844 17.254 19.8506C17.2259 19.974 17.2033 20.1035 17.1819 20.2268C17.1745 20.2692 17.1672 20.3109 17.1599 20.3515L17.1597 20.3527C17.0449 21.0287 17.0107 21.7151 17.0578 22.3986C17.0666 22.768 17.1469 23.1325 17.2946 23.4737C17.4612 23.914 17.763 24.2954 18.1601 24.5677C18.558 24.8405 19.0329 24.9908 19.5219 24.9988C20.0108 25.0067 20.4908 24.8719 20.8981 24.6122C21.3048 24.3528 21.62 23.9811 21.802 23.5463C22.0566 22.9923 22.1761 22.3898 22.1514 21.7848C22.1365 21.3431 22.1114 20.898 22.0865 20.4551C22.0743 20.2379 22.0621 20.0211 22.0511 19.8057C22.0456 19.5897 21.9714 19.3804 21.8384 19.206C21.7561 19.0958 21.6465 19.0069 21.5196 18.9473Z" fill="#3A3B7B"/>
<path d="M26.0222 22.2755C26.0093 22.2913 25.9957 22.3076 25.9815 22.3245C25.878 21.7516 25.7821 21.1788 25.6861 20.6052C25.6516 20.3994 25.617 20.1928 25.5822 19.9867L25.5783 19.9637L25.5656 19.9438C25.5416 19.9064 25.5392 19.8698 25.5392 19.7916V19.7826L25.5377 19.7736C25.5118 19.6122 25.4357 19.4619 25.3194 19.3426C25.2035 19.2235 25.053 19.1407 24.8874 19.1047C24.7221 19.0656 24.5484 19.0742 24.3881 19.1295C24.2283 19.1847 24.089 19.2839 23.9876 19.4146C23.9032 19.515 23.8341 19.6263 23.7823 19.7452C23.6648 20.0014 23.5462 20.2582 23.4273 20.5157L23.4253 20.5201C23.1285 21.163 22.8296 21.8102 22.5395 22.4625L22.5386 22.4646C22.3605 22.8875 22.2135 23.3332 22.0669 23.7775C22.0377 23.8662 22.0084 23.9548 21.9789 24.0432C21.926 24.1834 21.9029 24.3323 21.9108 24.4812C21.9012 24.6145 21.9344 24.7474 22.0061 24.8621C22.0792 24.979 22.1887 25.0711 22.3192 25.1253C22.4574 25.1834 22.612 25.1958 22.7584 25.1604C22.9045 25.125 23.0342 25.0441 23.1272 24.9303C23.2459 24.7901 23.348 24.6373 23.4313 24.4753C23.6771 23.9928 23.912 23.5044 24.1458 23.0181C24.2363 22.83 24.3242 22.6615 24.4242 22.478C24.4311 22.5007 24.4381 22.5227 24.4453 22.5448C24.5502 22.9878 24.7271 23.4121 24.9696 23.8021C25.0155 23.8847 25.0795 23.9569 25.157 24.0138C25.2355 24.0713 25.3262 24.1117 25.4226 24.1322C25.519 24.1527 25.6189 24.1528 25.7154 24.1325C25.8117 24.1122 25.9026 24.0718 25.9812 24.0145L26.1367 23.9028L27.3435 22.9271L27.2722 23.3637C27.1742 23.9637 27.077 24.5587 26.9737 25.1539C26.9061 25.4177 26.9062 25.6932 26.974 25.9569C27.0033 26.1053 27.0781 26.242 27.1888 26.3494C27.3004 26.4577 27.4433 26.5313 27.599 26.5607C27.7548 26.59 27.9161 26.5737 28.0621 26.514C28.2059 26.4551 28.3283 26.3567 28.4138 26.2312C28.6128 25.9942 28.7366 25.7074 28.7707 25.4047C28.8219 24.9773 28.8798 24.5441 28.9377 24.111C29.0043 23.6118 29.071 23.1128 29.1274 22.6233L29.1275 22.6218C29.1818 22.086 29.208 21.548 29.2062 21.0097C29.218 20.8395 29.1739 20.6701 29.0799 20.5252C28.9855 20.3799 28.8458 20.2669 28.6806 20.2023C28.5088 20.1273 28.3165 20.1072 28.1319 20.1451C27.9486 20.1828 27.7826 20.2755 27.6581 20.4099C27.4355 20.6075 27.2267 20.8189 27.033 21.0429L27.0317 21.0444C26.8202 21.2973 26.6102 21.5552 26.4015 21.8114C26.2746 21.9672 26.1481 22.1225 26.0222 22.2755Z" fill="#3A3B7B"/>
</g>
<defs>
<clipPath id="clip0_211_2056">
<rect width="32.7153" height="20.186" fill="white" transform="translate(1.16046 7.21973)"/>
</clipPath>
</defs>
</svg>
