<svg width="34" height="34" viewBox="0 0 34 34" fill="none" xmlns="http://www.w3.org/2000/svg">
<g clip-path="url(#clip0_211_2072)">
<path d="M30.0806 8.50332C30.0806 8.82769 30.3468 9.09063 30.6752 9.09063H31.2697C31.5981 9.09063 31.8643 8.82769 31.8643 8.50332C31.8643 8.17896 31.5981 7.91602 31.2697 7.91602H30.6752C30.3468 7.91602 30.0806 8.17896 30.0806 8.50332Z" fill="#212326"/>
<path d="M12.8384 26.7099H15.7267L14.8858 25.8793C14.6628 25.659 14.3604 25.5353 14.045 25.5353H12.8384C8.24126 25.5353 4.51456 21.854 4.51456 17.313C4.51456 12.7719 8.24126 9.09064 12.8384 9.09063H22.3513C26.9485 9.09063 30.6752 12.7719 30.6752 17.313C30.6752 21.854 26.9485 25.5353 22.3513 25.5353H18.7927C18.3197 25.5353 17.866 25.3496 17.5315 25.0192L16.5464 24.0461C15.9889 23.4954 15.2327 23.186 14.4443 23.186H12.8384C9.55471 23.186 6.8928 20.5566 6.8928 17.313C6.8928 14.0693 9.55471 11.4399 12.8384 11.4399H22.3513C25.635 11.4399 28.2969 14.0693 28.2969 17.313C28.2969 20.5566 25.635 23.186 22.3513 23.186H20.0664C19.5933 23.186 19.1396 23.0004 18.8051 22.67L17.82 21.6969C17.2625 21.1462 16.5063 20.8368 15.7179 20.8368H12.8384C10.8682 20.8368 9.27103 19.2591 9.27103 17.313C9.27103 15.3668 10.8682 13.7891 12.8384 13.7891H22.3513C24.3215 13.7891 25.9187 15.3668 25.9187 17.313C25.9187 19.2354 24.3602 20.7983 22.4233 20.8361L22.4229 20.8368H21.5528C21.0797 20.8368 20.626 20.6512 20.2915 20.3208L19.3064 19.3477C18.849 18.8958 18.2578 18.6064 17.6247 18.5171L17.5949 18.4876H12.8384C12.1817 18.4876 11.6493 17.9617 11.6493 17.313C11.6493 16.6642 12.1817 16.1383 12.8384 16.1383H22.3513C23.0081 16.1383 23.5405 16.6642 23.5405 17.313C23.5405 17.9617 23.0081 18.4876 22.3513 18.4876H19.9731L20.814 19.3182C21.0369 19.5384 21.3394 19.6622 21.6548 19.6622H22.3513C23.6648 19.6622 24.7296 18.6104 24.7296 17.313C24.7296 16.0155 23.6648 14.9637 22.3513 14.9637H12.8384C11.5249 14.9637 10.4602 16.0155 10.4602 17.313C10.4602 18.6104 11.5249 19.6622 12.8384 19.6622H17.2043C17.6774 19.6622 18.1311 19.8478 18.4656 20.1782L19.4507 21.1513C20.0082 21.702 20.7643 22.0114 21.5528 22.0114H22.6486V22.0024C25.1371 21.8508 27.1078 19.8092 27.1078 17.313C27.1078 14.7181 24.9782 12.6145 22.3513 12.6145H12.8384C10.2115 12.6145 8.08191 14.7181 8.08191 17.313C8.08191 19.9079 10.2115 22.0114 12.8384 22.0114H15.7179C16.191 22.0114 16.6447 22.1971 16.9792 22.5275L17.9643 23.5006C18.5218 24.0513 19.2779 24.3607 20.0664 24.3607H22.3513C26.2917 24.3607 29.4861 21.2053 29.4861 17.313C29.4861 13.4206 26.2917 10.2652 22.3513 10.2652H12.8384C8.89798 10.2652 5.70368 13.4206 5.70368 17.313C5.70368 21.2053 8.89798 24.3607 12.8384 24.3607H14.4443C14.9173 24.3607 15.371 24.5463 15.7055 24.8767L16.6907 25.8498C17.2482 26.4005 18.0043 26.7099 18.7927 26.7099H22.3513C27.6052 26.7099 31.8643 22.5027 31.8643 17.313C31.8643 12.1232 27.6052 7.91602 22.3513 7.91602L12.8384 7.91602C7.58453 7.91602 3.32544 12.1232 3.32544 17.313C3.32544 22.5027 7.58453 26.7099 12.8384 26.7099Z" fill="#212326"/>
</g>
<defs>
<clipPath id="clip0_211_2072">
<rect width="28.5388" height="18.7939" fill="white" transform="translate(3.32544 7.91602)"/>
</clipPath>
</defs>
</svg>
