<svg width="37" height="34" viewBox="0 0 37 34" fill="none" xmlns="http://www.w3.org/2000/svg">
<g clip-path="url(#clip0_211_2076)">
<path d="M8.81748 10.0039C7.40395 10.0039 6.04833 10.5654 5.04882 11.5649L1.78684 14.8269C0.787323 15.8264 0.225803 17.1821 0.225803 18.5956C0.225803 21.5391 2.61199 23.9253 5.55551 23.9253C6.96905 23.9253 8.32466 23.3638 9.32417 22.3642L11.5805 20.1079C11.5805 20.1079 11.5806 20.108 11.5805 20.1079L18.1547 13.5337C18.6321 13.0564 19.2795 12.7882 19.9546 12.7882C21.0848 12.7882 22.043 13.5248 22.3752 14.5442L24.45 12.4694C23.5035 10.9869 21.8439 10.0039 19.9546 10.0039C18.5411 10.0039 17.1854 10.5654 16.1859 11.5649L7.35541 20.3955C6.87805 20.8728 6.23061 21.141 5.55551 21.141C4.1497 21.141 3.01008 20.0014 3.01008 18.5956C3.01008 17.9205 3.27826 17.2731 3.75562 16.7957L7.01758 13.5337C7.49495 13.0564 8.14239 12.7882 8.81748 12.7882C9.94776 12.7882 10.9059 13.5248 11.2381 14.5442L13.313 12.4694C12.3665 10.9869 10.7068 10.0039 8.81748 10.0039Z" fill="#394149"/>
<path d="M18.4925 20.3955C18.0152 20.8728 17.3677 21.141 16.6926 21.141C15.5625 21.141 14.6044 20.4046 14.2721 19.3854L12.1974 21.4601C13.1439 22.9424 14.8035 23.9253 16.6926 23.9253C18.1062 23.9253 19.4618 23.3638 20.4613 22.3642L29.2918 13.5337C29.7692 13.0564 30.4166 12.7882 31.0917 12.7882C32.4975 12.7882 33.6371 13.9278 33.6371 15.3336C33.6371 16.0087 33.369 16.6561 32.8916 17.1335L29.6296 20.3955C29.1523 20.8728 28.5048 21.141 27.8297 21.141C26.6996 21.141 25.7414 20.4044 25.4091 19.3852L23.3344 21.46C24.2809 22.9424 25.9405 23.9253 27.8297 23.9253C29.2433 23.9253 30.5989 23.3638 31.5984 22.3642L34.8604 19.1023C35.8599 18.1028 36.4214 16.7471 36.4214 15.3336C36.4214 12.3901 34.0353 10.0039 31.0917 10.0039C29.6782 10.0039 28.3226 10.5654 27.3231 11.5649L18.4925 20.3955Z" fill="#394149"/>
</g>
<defs>
<clipPath id="clip0_211_2076">
<rect width="36.1956" height="13.9214" fill="white" transform="translate(0.225803 10.0039)"/>
</clipPath>
</defs>
</svg>
