<svg width="39" height="34" viewBox="0 0 39 34" fill="none" xmlns="http://www.w3.org/2000/svg">
<g clip-path="url(#clip0_211_2052)">
<path d="M38.5803 13.9507C38.5842 13.9217 38.5842 13.8924 38.5803 13.8634C38.584 13.8397 38.584 13.8156 38.5803 13.7919L38.2966 11.7506C38.2557 11.5063 38.1463 11.2781 37.9807 11.0913L37.932 11.0357L37.843 10.9483L32.9332 6.80213L33.0709 6.93717C32.9582 6.805 32.8168 6.69928 32.6569 6.62779C32.4971 6.55631 32.3229 6.52089 32.1473 6.52413H30.6565C30.4141 6.51942 30.1772 6.59498 29.984 6.73859C29.7812 6.59585 29.537 6.52068 29.2873 6.52413H27.7965C27.601 6.52102 27.4081 6.5686 27.2374 6.66205C27.0667 6.7555 26.9242 6.89151 26.8243 7.0563C26.6703 7.29168 26.6125 7.57528 26.6622 7.8506L26.8486 9.13734C26.7251 9.06873 26.5854 9.03313 26.4435 9.03409H19.2246C18.9656 9.03569 18.7126 9.11011 18.4954 9.24854C18.2855 9.37739 18.1169 9.5619 18.0093 9.78071L17.4503 9.31209C17.2303 9.1125 16.9398 9.00432 16.6401 9.01026H5.31357C5.05365 9.0149 4.7995 9.08609 4.57631 9.21677C4.27097 9.39199 4.04719 9.67688 3.95245 10.0111L0.355175 21.8063C0.287961 22.0006 0.281349 22.2102 0.336186 22.4083C0.391022 22.6063 0.504824 22.7839 0.663053 22.9183C0.704282 22.9525 0.747573 22.9844 0.792687 23.0136C0.792687 23.0136 0.719758 22.9659 0.679248 22.9262L5.58906 27.0804C5.79675 27.2678 6.0683 27.3726 6.35059 27.3742H17.7663C18.027 27.3676 18.2813 27.2936 18.5036 27.1598C18.6293 27.0924 18.7417 27.0037 18.8357 26.8976L18.8763 26.842L18.9411 26.7626L18.9897 26.6752L19.5244 27.128C19.7291 27.308 19.9948 27.4071 20.2698 27.406H31.7097C31.9702 27.3975 32.224 27.3237 32.447 27.1916C32.5699 27.1201 32.6817 27.0318 32.7792 26.9294L32.8197 26.8738L32.8845 26.7944C32.919 26.7442 32.9489 26.691 32.9736 26.6355C33.0001 26.5874 33.0218 26.5368 33.0385 26.4846L36.3198 15.7141V15.6188C36.3238 15.5818 36.3238 15.5445 36.3198 15.5076V15.4361C36.3237 15.4124 36.3237 15.3883 36.3198 15.3646C36.3234 15.3143 36.3234 15.2639 36.3198 15.2136H37.373C37.4646 15.2219 37.5569 15.2219 37.6485 15.2136H37.7214C37.7807 15.1963 37.8378 15.1723 37.8916 15.1422H37.9726L38.1184 15.031L38.1832 14.9833L38.2966 14.8403V14.7927L38.3777 14.6577C38.3731 14.6314 38.3731 14.6045 38.3777 14.5782C38.3734 14.5654 38.3734 14.5514 38.3777 14.5385C38.3949 14.492 38.4085 14.4441 38.4182 14.3955C38.4144 14.3799 38.4144 14.3635 38.4182 14.3479C38.4142 14.3242 38.4142 14.3 38.4182 14.2764C38.4182 14.2764 38.5803 13.9666 38.5803 13.9507Z" fill="black"/>
<path d="M16.9723 9.91603C17.0153 9.95416 17.0453 10.0043 17.0584 10.0597C17.0714 10.1151 17.0668 10.173 17.0452 10.2258L13.4561 22.0131C13.4109 22.1417 13.3184 22.2493 13.1968 22.3149C13.0978 22.3798 12.9833 22.4181 12.8646 22.4261H1.45705C1.35963 22.4215 1.26733 22.3819 1.19778 22.3149C1.15641 22.2774 1.12737 22.2286 1.11438 22.1749C1.10139 22.1211 1.10505 22.0648 1.12487 22.0131L4.72214 10.2258C4.76358 10.0955 4.85314 9.98502 4.97329 9.91603C5.07388 9.85579 5.18787 9.82036 5.30548 9.81277H16.713C16.8097 9.81368 16.9024 9.8506 16.9723 9.91603ZM11.0173 19.6381L13.1644 12.6007H7.15274L5.0138 19.6381H11.0173ZM27.8613 10.0352C27.9002 10.0795 27.9489 10.1147 28.0036 10.1381C28.0583 10.1614 28.1177 10.1724 28.1773 10.1702H29.66C29.7164 10.1707 29.772 10.1572 29.8217 10.1308C29.8713 10.1044 29.9132 10.066 29.9435 10.0193C29.9698 9.9828 29.9885 9.9415 29.9982 9.89783C30.0079 9.85418 30.0086 9.80904 30.0002 9.76511L29.7086 7.66819C29.6808 7.57114 29.6309 7.48152 29.5628 7.40607C29.5238 7.36173 29.4752 7.32656 29.4205 7.30318C29.3658 7.27981 29.3064 7.26882 29.2468 7.27104H27.7641C27.7076 7.2705 27.652 7.28408 27.6024 7.31048C27.5528 7.33689 27.5108 7.37525 27.4805 7.42196C27.4238 7.53316 27.3995 7.60464 27.4238 7.66819L27.7236 9.76511C27.739 9.86722 27.7872 9.96183 27.8613 10.0352ZM32.5686 7.6523C32.5408 7.55525 32.4909 7.46563 32.4227 7.39018C32.3854 7.346 32.3382 7.31085 32.2848 7.28743C32.2315 7.26401 32.1733 7.25297 32.1149 7.25515H30.6241C30.5686 7.2536 30.5136 7.26681 30.4651 7.29338C30.4166 7.31995 30.3764 7.35889 30.3486 7.40607C30.2947 7.47654 30.2714 7.56505 30.2838 7.6523L30.5836 9.74922C30.6024 9.85025 30.6501 9.94393 30.7213 10.0193C30.7609 10.0628 30.8097 10.0973 30.8643 10.1206C30.9188 10.1439 30.9778 10.1554 31.0373 10.1543H32.5281C32.5835 10.155 32.638 10.1415 32.6863 10.115C32.7347 10.0885 32.7751 10.05 32.8035 10.0034C32.8317 9.96786 32.8514 9.92658 32.8612 9.8826C32.8711 9.83862 32.8707 9.79305 32.8602 9.74922L32.5686 7.6523ZM26.5569 10.8295L26.411 9.79688H19.2246C19.1118 9.80298 19.0026 9.83864 18.9086 9.90014C18.849 9.93204 18.797 9.97626 18.7565 10.0297C18.7159 10.0832 18.6877 10.1447 18.6737 10.2099L18.0742 12.1797C18.0502 12.229 18.042 12.2842 18.0507 12.3381C18.0594 12.3919 18.0845 12.442 18.1228 12.4816C18.1911 12.5445 18.2803 12.5812 18.3739 12.5848H27.1079L24.9608 19.6223H16.2512C16.1389 19.6248 16.0295 19.6578 15.9353 19.7175C15.8207 19.7889 15.737 19.8992 15.7003 20.0273L15.0926 21.9972C15.0728 22.0477 15.0676 22.1026 15.0776 22.1559C15.0876 22.2092 15.1124 22.2587 15.1493 22.299C15.2155 22.3662 15.3054 22.406 15.4005 22.4102H26.8405C26.9588 22.4002 27.0728 22.362 27.1726 22.299C27.2923 22.2331 27.382 22.1253 27.4238 21.9972L30.7132 11.2266H27.0106C26.9519 11.2277 26.8935 11.217 26.8392 11.1952C26.7848 11.1733 26.7357 11.1408 26.6947 11.0995C26.6277 11.0275 26.5803 10.9401 26.5569 10.8453V10.8295Z" fill="white"/>
</g>
<defs>
<clipPath id="clip0_211_2052">
<rect width="38.2838" height="20.8821" fill="white" transform="translate(0.299408 6.52393)"/>
</clipPath>
</defs>
</svg>
