<svg width="24" height="22" viewBox="0 0 24 22" fill="none" xmlns="http://www.w3.org/2000/svg">
<mask id="path-1-inside-1_211_2339" fill="white">
<path d="M15.0111 10.7644C14.8435 10.7644 14.6879 10.7184 14.5497 10.6442V10.6462C14.5497 10.9099 14.4472 11.1575 14.2612 11.343C14.0752 11.529 13.8278 11.6315 13.5644 11.6315C13.3943 11.6315 13.2367 11.5843 13.097 11.5082C13.0829 11.7494 12.9865 11.9749 12.8144 12.1471C12.6285 12.3331 12.381 12.4355 12.1175 12.4355C11.5938 12.4355 11.1686 12.0239 11.1379 11.508C10.9759 11.5956 10.7927 11.6415 10.6038 11.6293C10.0887 11.5956 9.68527 11.1505 9.68527 10.6159V6.18423L9.18065 7.05847C8.98845 7.39284 8.62867 7.60045 8.2413 7.60045C8.05254 7.60045 7.86608 7.55093 7.70095 7.4563C7.4953 7.33708 7.3482 7.1457 7.28703 6.91675C7.22553 6.68765 7.25735 6.44806 7.37624 6.24273C7.3764 6.24273 9.02731 3.38383 9.12803 3.20822C9.14 3.18182 9.17411 3.10524 9.20314 3.03997C9.23085 2.97765 9.25463 2.91369 9.27742 2.84941C9.77529 1.44385 11.0081 0.570744 12.4948 0.570744C14.4255 0.570744 15.9962 2.27396 15.9962 4.36752L15.9964 9.77901C15.9964 10.0424 15.894 10.2898 15.7082 10.476C15.5223 10.662 15.2748 10.7645 15.0111 10.7645L15.0111 10.7644ZM12.4948 1.09429C11.2173 1.09429 10.1991 1.81588 9.7709 3.0245C9.74351 3.10124 9.71498 3.17799 9.68169 3.25277C9.58509 3.46941 9.58509 3.46941 9.55787 3.50056L9.55426 3.49745C9.41946 3.7518 9.01899 4.44532 7.82956 6.50475C7.78069 6.58921 7.76773 6.68728 7.79266 6.78108C7.81791 6.87488 7.87843 6.95393 7.96223 7.0023C8.22232 7.1517 8.57852 7.05527 8.72676 6.79698L9.7204 5.07668C9.77976 4.97419 9.8998 4.92384 10.0149 4.955C10.1294 4.98567 10.2089 5.08948 10.2089 5.20788V10.616C10.2089 10.8712 10.4015 11.0914 10.6381 11.107C10.7746 11.1142 10.9018 11.0685 10.9974 10.973C11.0843 10.8861 11.1322 10.7703 11.1322 10.6465V7.10951C11.1322 6.96487 11.2495 6.84761 11.3941 6.84761C11.5388 6.84761 11.656 6.96471 11.656 7.10951L11.6558 11.4505C11.6558 11.705 11.863 11.9121 12.1175 11.9121C12.2411 11.9121 12.3572 11.8642 12.4443 11.7773C12.5312 11.6902 12.5791 11.5741 12.5791 11.4505V7.10951C12.5791 6.96487 12.6962 6.84761 12.841 6.84761C12.9857 6.84761 13.1029 6.9647 13.1029 7.10951L13.1028 10.6058V10.6465C13.1028 10.9008 13.3099 11.108 13.5646 11.108C13.688 11.108 13.8038 11.0599 13.8914 10.9727C13.9783 10.8859 14.0262 10.7701 14.0262 10.6463V7.10932C14.0262 6.96468 14.1433 6.84743 14.2881 6.84743C14.4327 6.84743 14.55 6.96452 14.55 7.10932L14.5497 9.77913C14.5497 10.0338 14.7568 10.2409 15.0111 10.2409C15.1349 10.2409 15.2507 10.1929 15.3376 10.1061C15.4249 10.0189 15.4726 9.90278 15.4726 9.77913L15.4728 4.36764C15.4728 2.56292 14.1369 1.09434 12.4948 1.09434L12.4948 1.09429Z"/>
</mask>
<path d="M15.0111 10.7644C14.8435 10.7644 14.6879 10.7184 14.5497 10.6442V10.6462C14.5497 10.9099 14.4472 11.1575 14.2612 11.343C14.0752 11.529 13.8278 11.6315 13.5644 11.6315C13.3943 11.6315 13.2367 11.5843 13.097 11.5082C13.0829 11.7494 12.9865 11.9749 12.8144 12.1471C12.6285 12.3331 12.381 12.4355 12.1175 12.4355C11.5938 12.4355 11.1686 12.0239 11.1379 11.508C10.9759 11.5956 10.7927 11.6415 10.6038 11.6293C10.0887 11.5956 9.68527 11.1505 9.68527 10.6159V6.18423L9.18065 7.05847C8.98845 7.39284 8.62867 7.60045 8.2413 7.60045C8.05254 7.60045 7.86608 7.55093 7.70095 7.4563C7.4953 7.33708 7.3482 7.1457 7.28703 6.91675C7.22553 6.68765 7.25735 6.44806 7.37624 6.24273C7.3764 6.24273 9.02731 3.38383 9.12803 3.20822C9.14 3.18182 9.17411 3.10524 9.20314 3.03997C9.23085 2.97765 9.25463 2.91369 9.27742 2.84941C9.77529 1.44385 11.0081 0.570744 12.4948 0.570744C14.4255 0.570744 15.9962 2.27396 15.9962 4.36752L15.9964 9.77901C15.9964 10.0424 15.894 10.2898 15.7082 10.476C15.5223 10.662 15.2748 10.7645 15.0111 10.7645L15.0111 10.7644ZM12.4948 1.09429C11.2173 1.09429 10.1991 1.81588 9.7709 3.0245C9.74351 3.10124 9.71498 3.17799 9.68169 3.25277C9.58509 3.46941 9.58509 3.46941 9.55787 3.50056L9.55426 3.49745C9.41946 3.7518 9.01899 4.44532 7.82956 6.50475C7.78069 6.58921 7.76773 6.68728 7.79266 6.78108C7.81791 6.87488 7.87843 6.95393 7.96223 7.0023C8.22232 7.1517 8.57852 7.05527 8.72676 6.79698L9.7204 5.07668C9.77976 4.97419 9.8998 4.92384 10.0149 4.955C10.1294 4.98567 10.2089 5.08948 10.2089 5.20788V10.616C10.2089 10.8712 10.4015 11.0914 10.6381 11.107C10.7746 11.1142 10.9018 11.0685 10.9974 10.973C11.0843 10.8861 11.1322 10.7703 11.1322 10.6465V7.10951C11.1322 6.96487 11.2495 6.84761 11.3941 6.84761C11.5388 6.84761 11.656 6.96471 11.656 7.10951L11.6558 11.4505C11.6558 11.705 11.863 11.9121 12.1175 11.9121C12.2411 11.9121 12.3572 11.8642 12.4443 11.7773C12.5312 11.6902 12.5791 11.5741 12.5791 11.4505V7.10951C12.5791 6.96487 12.6962 6.84761 12.841 6.84761C12.9857 6.84761 13.1029 6.9647 13.1029 7.10951L13.1028 10.6058V10.6465C13.1028 10.9008 13.3099 11.108 13.5646 11.108C13.688 11.108 13.8038 11.0599 13.8914 10.9727C13.9783 10.8859 14.0262 10.7701 14.0262 10.6463V7.10932C14.0262 6.96468 14.1433 6.84743 14.2881 6.84743C14.4327 6.84743 14.55 6.96452 14.55 7.10932L14.5497 9.77913C14.5497 10.0338 14.7568 10.2409 15.0111 10.2409C15.1349 10.2409 15.2507 10.1929 15.3376 10.1061C15.4249 10.0189 15.4726 9.90278 15.4726 9.77913L15.4728 4.36764C15.4728 2.56292 14.1369 1.09434 12.4948 1.09434L12.4948 1.09429Z" fill="#4CAF4F"/>
<path d="M15.0111 10.7644V9.83635H18.2901L15.4976 11.5549L15.0111 10.7644ZM14.5497 10.6442H13.6216V9.0935L14.9882 9.8263L14.5497 10.6442ZM14.2612 11.343L13.605 10.6868L13.6058 10.6859L14.2612 11.343ZM13.097 11.5082L12.1705 11.454L12.2559 9.99332L13.5409 10.6931L13.097 11.5082ZM12.8144 12.1471L13.4711 12.803L13.4707 12.8033L12.8144 12.1471ZM11.1379 11.508L10.6967 10.6915L11.978 9.99898L12.0644 11.453L11.1379 11.508ZM10.6038 11.6293L10.5443 12.5555L10.5431 12.5555L10.6038 11.6293ZM9.68527 6.18423L8.88147 5.72026L10.6134 2.71985V6.18423H9.68527ZM9.18065 7.05847L8.376 6.59596L8.37685 6.5945L9.18065 7.05847ZM7.70095 7.4563L7.23952 8.26158L7.23546 8.25922L7.70095 7.4563ZM7.28703 6.91675L8.18339 6.67614L8.18367 6.67719L7.28703 6.91675ZM7.37624 6.24273L6.57307 5.77767L6.84118 5.31464H7.37624V6.24273ZM9.12803 3.20822L9.97329 3.59148L9.95507 3.63167L9.93311 3.66995L9.12803 3.20822ZM9.20314 3.03997L8.35512 2.66284L8.35513 2.66283L9.20314 3.03997ZM9.27742 2.84941L10.1523 3.15928L10.1522 3.15953L9.27742 2.84941ZM15.9962 4.36752L15.0681 4.36755V4.36752H15.9962ZM15.9964 9.77901L16.9244 9.77898V9.77901H15.9964ZM15.7082 10.476L16.3651 11.1316L16.3645 11.1323L15.7082 10.476ZM15.0111 10.7645V11.6926H11.7321L14.5247 9.97404L15.0111 10.7645ZM12.4948 1.09429V0.166194H13.7252L13.3872 1.34925L12.4948 1.09429ZM9.7709 3.0245L10.6457 3.33442L10.645 3.33641L9.7709 3.0245ZM9.68169 3.25277L10.5296 3.63023L10.5293 3.63072L9.68169 3.25277ZM9.55787 3.50056L10.2568 4.11122L9.64962 4.8061L8.95125 4.20297L9.55787 3.50056ZM9.55426 3.49745L8.73422 3.06285L9.27954 2.03389L10.1609 2.79505L9.55426 3.49745ZM7.82956 6.50475L8.63324 6.96892L8.63285 6.96959L7.82956 6.50475ZM7.79266 6.78108L6.89647 7.02235L6.8957 7.01945L7.79266 6.78108ZM7.96223 7.0023L7.49996 7.80708L7.49823 7.80608L7.96223 7.0023ZM8.72676 6.79698L7.92182 6.335L7.9231 6.33279L8.72676 6.79698ZM9.7204 5.07668L8.91673 4.61249L8.91729 4.61152L9.7204 5.07668ZM10.0149 4.955L9.77475 5.85149L9.77245 5.85086L10.0149 4.955ZM10.6381 11.107L10.5891 12.0339L10.5772 12.0331L10.6381 11.107ZM10.9974 10.973L11.6537 11.6293L11.6531 11.6298L10.9974 10.973ZM11.656 7.10951H12.5841V7.10955L11.656 7.10951ZM11.6558 11.4505H10.7278V11.4504L11.6558 11.4505ZM12.4443 11.7773L13.1012 12.4329L13.1 12.4342L12.4443 11.7773ZM13.1029 7.10951H14.031V7.10955L13.1029 7.10951ZM13.1028 10.6058H12.1747V10.6058L13.1028 10.6058ZM13.8914 10.9727L14.547 11.6295L14.5464 11.6301L13.8914 10.9727ZM14.55 7.10932H15.4781V7.10944L14.55 7.10932ZM14.5497 9.77913H13.6216V9.77902L14.5497 9.77913ZM15.3376 10.1061L15.9939 10.7624L15.9933 10.763L15.3376 10.1061ZM15.4726 9.77913H14.5445V9.7791L15.4726 9.77913ZM15.4728 4.36764H16.4009V4.36767L15.4728 4.36764ZM12.4948 1.09434V2.02243H11.2644L11.6024 0.839374L12.4948 1.09434ZM15.0111 11.6925C14.6694 11.6925 14.3643 11.5979 14.1111 11.4622L14.9882 9.8263C15.0002 9.83273 15.0079 9.83519 15.0109 9.836C15.0135 9.8367 15.0131 9.83635 15.0111 9.83635V11.6925ZM15.4778 10.6442V10.6462H13.6216V10.6442H15.4778ZM15.4778 10.6462C15.4778 11.1553 15.278 11.6397 14.9166 12.0001L13.6058 10.6859C13.6125 10.6793 13.6157 10.6736 13.6177 10.669C13.6196 10.6643 13.6216 10.6572 13.6216 10.6462H15.4778ZM14.9175 11.9993C14.5573 12.3594 14.0737 12.5596 13.5644 12.5596V10.7034C13.575 10.7034 13.5821 10.7015 13.5868 10.6995C13.5916 10.6975 13.5977 10.694 13.605 10.6868L14.9175 11.9993ZM13.5644 12.5596C13.2182 12.5596 12.9093 12.4627 12.6531 12.3232L13.5409 10.6931C13.553 10.6997 13.5606 10.7022 13.5637 10.703C13.5663 10.7037 13.566 10.7034 13.5644 10.7034V12.5596ZM14.0235 11.5623C13.9968 12.0191 13.8115 12.4622 13.4711 12.803L12.1578 11.4912C12.1613 11.4877 12.1633 11.4847 12.165 11.4808C12.1668 11.4767 12.1697 11.4682 12.1705 11.454L14.0235 11.5623ZM13.4707 12.8033C13.1105 13.1636 12.6269 13.3636 12.1175 13.3636V11.5075C12.1283 11.5075 12.1353 11.5055 12.1401 11.5035C12.1448 11.5016 12.1509 11.4981 12.1582 11.4908L13.4707 12.8033ZM12.1175 13.3636C11.0928 13.3636 10.2707 12.5595 10.2115 11.563L12.0644 11.453C12.0653 11.4688 12.0718 11.4826 12.0832 11.4935C12.0888 11.4988 12.0944 11.5022 12.0994 11.5042C12.1037 11.506 12.1092 11.5075 12.1175 11.5075V13.3636ZM11.5792 12.3245C11.2794 12.4865 10.924 12.5799 10.5443 12.5555L10.6633 10.7032C10.6633 10.7032 10.6653 10.7034 10.6702 10.7022C10.6754 10.701 10.6845 10.6981 10.6967 10.6915L11.5792 12.3245ZM10.5431 12.5555C9.51257 12.4879 8.75718 11.6115 8.75718 10.6159H10.6134C10.6134 10.6472 10.6248 10.6714 10.639 10.6872C10.653 10.7025 10.6624 10.7031 10.6645 10.7032L10.5431 12.5555ZM8.75718 10.6159V6.18423H10.6134V10.6159H8.75718ZM10.4891 6.6482L9.98444 7.52243L8.37685 6.5945L8.88147 5.72026L10.4891 6.6482ZM9.98529 7.52097C9.62667 8.14488 8.95913 8.52855 8.2413 8.52855V6.67236C8.2982 6.67236 8.35023 6.6408 8.37601 6.59596L9.98529 7.52097ZM8.2413 8.52855C7.89033 8.52855 7.54484 8.43651 7.23953 8.26157L8.16236 6.65104C8.18732 6.66534 8.21476 6.67236 8.2413 6.67236V8.52855ZM7.23546 8.25922C6.81878 8.01766 6.51549 7.62453 6.39039 7.15632L8.18367 6.67719C8.18282 6.67402 8.18051 6.66841 8.17604 6.66259C8.1716 6.65681 8.1675 6.654 8.16643 6.65339L7.23546 8.25922ZM6.39067 7.15736C6.26508 6.68949 6.33083 6.19603 6.57307 5.77767L8.17941 6.70779C8.18073 6.7055 8.18305 6.70021 8.18404 6.69271C8.18504 6.68519 8.18421 6.67918 8.18339 6.67614L6.39067 7.15736ZM7.37624 5.31464C6.92098 5.43397 6.58021 5.76556 6.57766 5.76983C6.57682 5.77126 6.57555 5.77341 6.57515 5.7741C6.57492 5.77449 6.57453 5.77517 6.57439 5.7754C6.57431 5.77554 6.57414 5.77583 6.5741 5.7759C6.57397 5.77613 6.57401 5.77606 6.57436 5.77545C6.57499 5.77437 6.57605 5.77254 6.57759 5.76987C6.58064 5.7646 6.58522 5.75668 6.59127 5.74621C6.60335 5.7253 6.62111 5.69456 6.64378 5.65532C6.68911 5.57684 6.75399 5.46451 6.83217 5.32914C6.98852 5.0584 7.19803 4.69558 7.41068 4.32727C7.83671 3.58941 8.27347 2.83275 8.32294 2.74649L9.93311 3.66995C9.88187 3.7593 9.44282 4.5199 9.01817 5.25539C8.80549 5.62375 8.59595 5.98663 8.43956 6.25742C8.36137 6.39282 8.29646 6.50521 8.25108 6.58377C8.22839 6.62304 8.21057 6.65389 8.1984 6.67495C8.19232 6.68546 8.18761 6.69361 8.1844 6.69917C8.18281 6.70192 8.18149 6.70419 8.18053 6.70586C8.18008 6.70663 8.17952 6.70759 8.17899 6.70851C8.17879 6.70885 8.1782 6.70987 8.17748 6.7111C8.17703 6.71187 8.17573 6.71408 8.17486 6.71556C8.17228 6.71988 7.8315 7.05149 7.37624 7.17082V5.31464ZM8.28276 2.82496C8.29298 2.80243 8.32535 2.72979 8.35512 2.66284L10.0512 3.41709C10.0229 3.48069 9.98702 3.56121 9.97329 3.59148L8.28276 2.82496ZM8.35513 2.66283C8.36802 2.63382 8.3823 2.59676 8.40268 2.53928L10.1522 3.15953C10.127 3.23062 10.0937 3.32147 10.0511 3.4171L8.35513 2.66283ZM8.40259 2.53953C9.03118 0.764915 10.6134 -0.357349 12.4948 -0.357349V1.49884C11.4027 1.49884 10.5194 2.12278 10.1523 3.15928L8.40259 2.53953ZM12.4948 -0.357349C15.0074 -0.357349 16.9243 1.83359 16.9243 4.36752H15.0681C15.0681 2.71432 13.8436 1.49884 12.4948 1.49884V-0.357349ZM16.9243 4.36749L16.9244 9.77898L15.0683 9.77904L15.0681 4.36755L16.9243 4.36749ZM16.9244 9.77901C16.9244 10.288 16.7248 10.7713 16.3651 11.1316L15.0514 9.82034C15.0587 9.81299 15.0623 9.80674 15.0643 9.80187C15.0663 9.79699 15.0683 9.78983 15.0683 9.77901H16.9244ZM16.3645 11.1323C16.0042 11.4925 15.5206 11.6926 15.0111 11.6926V9.83637C15.022 9.83637 15.0291 9.83438 15.0339 9.83242C15.0386 9.83047 15.0447 9.82697 15.052 9.81974L16.3645 11.1323ZM14.5247 9.97404L14.5247 9.97402L15.4976 11.5549L15.4975 11.5549L14.5247 9.97404ZM12.4948 2.02238C11.6124 2.02238 10.9433 2.49442 10.6457 3.33442L8.89608 2.71458C9.45485 1.13733 10.8222 0.166194 12.4948 0.166194V2.02238ZM10.645 3.33641C10.6157 3.41851 10.5777 3.5222 10.5296 3.63023L8.83382 2.87532C8.85231 2.83379 8.87131 2.78398 8.89679 2.71258L10.645 3.33641ZM10.5293 3.63072C10.4868 3.72604 10.4512 3.80654 10.424 3.86107C10.4071 3.89491 10.3797 3.94707 10.34 4.00484C10.2998 4.06337 10.26 4.10752 10.2568 4.11122L8.85897 2.88991C8.86115 2.88742 8.86044 2.88823 8.85934 2.8895C8.85792 2.89115 8.85432 2.89536 8.84958 2.90113C8.84468 2.9071 8.83851 2.91482 8.83155 2.924C8.82453 2.93326 8.81739 2.94311 8.81025 2.9535C8.79571 2.97466 8.78451 2.99319 8.77655 3.0072C8.76912 3.02029 8.76457 3.02934 8.76355 3.03138C8.76249 3.03349 8.76315 3.03225 8.76631 3.0255C8.76936 3.01895 8.77369 3.00953 8.7799 2.99582C8.78605 2.98222 8.79342 2.9658 8.80249 2.94551C8.81155 2.92525 8.8219 2.90204 8.83403 2.87483L10.5293 3.63072ZM8.95125 4.20297L8.94764 4.19985L10.1609 2.79505L10.1645 2.79816L8.95125 4.20297ZM10.3743 3.93205C10.2291 4.20613 9.81438 4.92386 8.63324 6.96892L7.02588 6.04058C8.22361 3.96678 8.60987 3.29747 8.73422 3.06285L10.3743 3.93205ZM8.63285 6.96959C8.70711 6.84126 8.72781 6.68642 8.68962 6.5427L6.8957 7.01945C6.80765 6.68813 6.85426 6.33716 7.02626 6.03991L8.63285 6.96959ZM8.68884 6.5398C8.65065 6.39795 8.55678 6.27389 8.42623 6.19852L7.49823 7.80608C7.20007 7.63396 6.98518 7.35181 6.89648 7.02235L8.68884 6.5398ZM8.42449 6.19753C8.31885 6.13684 8.2161 6.13724 8.14515 6.15635C8.07448 6.17537 7.98386 6.22692 7.92182 6.335L9.5317 7.25897C9.12722 7.96372 8.20283 8.21081 7.49996 7.80708L8.42449 6.19753ZM7.9231 6.33279L8.91673 4.61249L10.5241 5.54088L9.53043 7.26118L7.9231 6.33279ZM8.91729 4.61152C9.18536 4.1487 9.73253 3.91708 10.2574 4.05914L9.77245 5.85086C10.0671 5.9306 10.3742 5.79968 10.5235 5.54186L8.91729 4.61152ZM10.2551 4.05853C10.7758 4.19802 11.137 4.66986 11.137 5.20788H9.28084C9.28084 5.5091 9.48302 5.77332 9.77475 5.85148L10.2551 4.05853ZM11.137 5.20788V10.616H9.28084V5.20788H11.137ZM11.137 10.616C11.137 10.5103 11.0978 10.4141 11.0335 10.3405C10.9693 10.2671 10.856 10.1912 10.6991 10.1809L10.5772 12.0331C9.79588 11.9817 9.28084 11.3011 9.28084 10.616H11.137ZM10.6871 10.1802C10.5775 10.1744 10.4435 10.2146 10.3417 10.3162L11.6531 11.6298C11.3601 11.9223 10.9716 12.054 10.5891 12.0338L10.6871 10.1802ZM10.3412 10.3167C10.2531 10.4048 10.2041 10.5255 10.2041 10.6465H12.0603C12.0603 11.0151 11.9156 11.3674 11.6537 11.6293L10.3412 10.3167ZM10.2041 10.6465V7.10951H12.0603V10.6465H10.2041ZM10.2041 7.10951C10.2041 6.4523 10.7369 5.91952 11.3941 5.91952V7.77571C11.762 7.77571 12.0603 7.47744 12.0603 7.10951H10.2041ZM11.3941 5.91952C12.051 5.91952 12.5841 6.45176 12.5841 7.10951H10.7279C10.7279 7.47765 11.0266 7.77571 11.3941 7.77571V5.91952ZM12.5841 7.10955L12.5839 11.4505L10.7278 11.4504L10.7279 7.10948L12.5841 7.10955ZM12.5839 11.4505C12.5839 11.1924 12.3755 10.984 12.1175 10.984V12.8402C11.3504 12.8402 10.7278 12.2176 10.7278 11.4505H12.5839ZM12.1175 10.984C11.9967 10.984 11.8766 11.0327 11.7887 11.1204L13.1 12.4342C12.8379 12.6957 12.4856 12.8402 12.1175 12.8402V10.984ZM11.7874 11.1217C11.6997 11.2096 11.651 11.3297 11.651 11.4505H13.5072C13.5072 11.8185 13.3628 12.1709 13.1012 12.4329L11.7874 11.1217ZM11.651 11.4505V7.10951H13.5072V11.4505H11.651ZM11.651 7.10951C11.651 6.45268 12.1833 5.91952 12.841 5.91952V7.7757C13.2092 7.7757 13.5072 7.47705 13.5072 7.10951H11.651ZM12.841 5.91952C13.4979 5.91952 14.031 6.45175 14.031 7.10951H12.1748C12.1748 7.47765 12.4735 7.7757 12.841 7.7757V5.91952ZM14.031 7.10955L14.0308 10.6059L12.1747 10.6058L12.1748 7.10946L14.031 7.10955ZM14.0308 10.6058V10.6465H12.1747V10.6058H14.0308ZM14.0308 10.6465C14.0308 10.3878 13.822 10.1799 13.5646 10.1799V12.036C12.7978 12.036 12.1747 11.4139 12.1747 10.6465H14.0308ZM13.5646 10.1799C13.4412 10.1799 13.3218 10.23 13.2364 10.3152L14.5464 11.6301C14.2858 11.8898 13.9349 12.036 13.5646 12.036V10.1799ZM13.2358 10.3158C13.147 10.4044 13.0981 10.5255 13.0981 10.6463H14.9543C14.9543 11.0148 14.8096 11.3674 14.547 11.6295L13.2358 10.3158ZM13.0981 10.6463V7.10932H14.9543V10.6463H13.0981ZM13.0981 7.10932C13.0981 6.45248 13.6303 5.91934 14.2881 5.91934V7.77552C14.6562 7.77552 14.9543 7.47688 14.9543 7.10932H13.0981ZM14.2881 5.91934C14.9449 5.91934 15.4781 6.45157 15.4781 7.10932H13.6219C13.6219 7.47747 13.9205 7.77552 14.2881 7.77552V5.91934ZM15.4781 7.10944L15.4778 9.77925L13.6216 9.77902L13.6219 7.10921L15.4781 7.10944ZM15.4778 9.77913C15.4778 9.52168 15.2698 9.31284 15.0111 9.31284V11.169C14.2438 11.169 13.6216 10.5459 13.6216 9.77913H15.4778ZM15.0111 9.31284C14.8894 9.31284 14.7693 9.36214 14.682 9.44926L15.9933 10.763C15.7322 11.0236 15.3805 11.169 15.0111 11.169V9.31284ZM14.6814 9.44988C14.593 9.53825 14.5445 9.65886 14.5445 9.77913H16.4007C16.4007 10.1467 16.2568 10.4995 15.9939 10.7624L14.6814 9.44988ZM14.5445 9.7791L14.5447 4.36761L16.4009 4.36767L16.4007 9.77916L14.5445 9.7791ZM14.5447 4.36764C14.5447 2.99091 13.5436 2.02243 12.4948 2.02243V0.166247C14.7301 0.166247 16.4009 2.13493 16.4009 4.36764H14.5447ZM11.6024 0.839374L11.6024 0.83932L13.3872 1.34925L13.3872 1.34931L11.6024 0.839374Z" fill="#4CAF4F" mask="url(#path-1-inside-1_211_2339)"/>
<path d="M6.52856 15.7396C6.40426 15.8144 6.24354 15.774 6.16925 15.6499C6.0948 15.5259 6.13514 15.365 6.25896 15.2906M6.52856 15.7396L8.79116 12.6951C9.00976 12.5637 9.29806 12.6155 9.43286 12.8105M6.52856 15.7396L9.56143 13.9201H9.56159L9.56192 13.9199M6.52856 15.7396L10.7259 14.2983C10.8319 14.2346 10.9067 14.1339 10.9365 14.0144M6.25896 15.2906L9.29199 13.4711C9.39793 13.4075 9.47288 13.3066 9.50272 13.1874M6.25896 15.2906L6.28966 15.3418L6.39366 15.5151L6.39387 15.5155L6.44073 15.5936L6.49768 15.6885L6.49779 15.6885L6.49786 15.6884L6.49809 15.6883M6.25896 15.2906L6.28972 15.3417M9.50272 13.1874C9.53552 13.0565 9.51059 12.9227 9.43286 12.8105M9.50272 13.1874L9.57758 13.2061L9.57043 13.0523C9.56551 12.9463 9.53452 12.8524 9.48211 12.7768L9.48196 12.7766L9.43286 12.8105M9.50272 13.1874L9.57758 13.2061L9.58496 13.365L9.43312 13.4561H9.43291L9.3227 13.5222L9.32268 13.5222L9.32265 13.5222L6.28983 15.3417M9.43286 12.8105L9.48193 12.7765L7.24261 16.929C7.33783 16.8718 7.36933 16.7479 7.31159 16.6517C7.25434 16.5564 7.13007 16.525 7.03436 16.5824L10.0672 14.763C10.1369 14.7212 10.21 14.6896 10.2845 14.6678L10.7549 14.3466L10.755 14.3466L10.7809 14.3289C10.8912 14.2536 10.9642 14.1492 10.9942 14.029L10.9943 14.0288L10.9365 14.0144M6.28983 15.3417C6.38528 15.2846 6.50951 15.3156 6.56708 15.411C6.5672 15.4112 6.56733 15.4114 6.56745 15.4116C6.62468 15.5077 6.59312 15.6311 6.49809 15.6883M6.28983 15.3417C6.28979 15.3417 6.28976 15.3417 6.28972 15.3417M6.28983 15.3417L6.28972 15.3417M6.49809 15.6883L9.53071 13.869L9.53077 13.869L9.53093 13.8689C9.53102 13.8688 9.53111 13.8688 9.5312 13.8687L9.56143 13.9191L9.56159 13.9194L9.56192 13.9199M6.49809 15.6883L6.39411 15.5154L6.3939 15.515L6.35872 15.4565L6.28972 15.3417M9.56192 13.9199V13.8495C9.62044 13.8111 9.674 13.7667 9.72182 13.7171L10.221 13.4566L10.2211 13.4565L10.2487 13.4421C10.329 13.4002 10.4099 13.3806 10.4868 13.3806C10.5283 13.3806 10.5712 13.3858 10.6149 13.3966C10.6149 13.3966 10.6149 13.3966 10.6149 13.3966C10.6151 13.3967 10.6152 13.3967 10.6154 13.3967L10.7131 13.0043M9.56192 13.9199L10.251 13.5065C10.3566 13.4432 10.4803 13.4247 10.6005 13.4545C10.72 13.4844 10.8209 13.5592 10.8844 13.6649C10.9478 13.7709 10.9664 13.895 10.9365 14.0144M10.7131 13.0043C10.7131 13.0043 10.713 13.0043 10.713 13.0043M10.7131 13.0043C10.9522 13.0641 11.1556 13.215 11.2822 13.4261L11.3333 13.3954M10.7131 13.0043L10.7275 12.9464M10.713 13.0043L10.615 13.3966C10.7508 13.4306 10.8633 13.514 10.9353 13.6341C10.9354 13.6342 10.9354 13.6342 10.9354 13.6343C10.9354 13.6343 10.9355 13.6343 10.9355 13.6343C11.0077 13.755 11.0281 13.8935 10.9943 14.0287L10.9943 14.0288L10.9365 14.0144M10.713 13.0043C10.713 13.0043 10.7129 13.0043 10.7129 13.0043L10.7123 13.0042C10.6406 12.9864 10.5679 12.9772 10.4957 12.9766M10.713 13.0043L10.7275 12.9464M10.2754 15.1097L10.537 14.9527L10.8068 15.1119C10.8876 15.1595 10.9486 15.2192 10.9899 15.2882L10.9901 15.2884C10.9901 15.2885 10.9901 15.2886 10.9902 15.2886L10.9393 15.3193M10.2754 15.1097L11.0492 15.6833C11.083 15.5476 11.0624 15.4093 10.9902 15.2887L10.9393 15.3193M10.2754 15.1097L10.3061 15.1608M10.2754 15.1097L10.2754 15.1097L10.3061 15.1608M10.9393 15.3193C10.8083 15.101 10.5241 15.03 10.3061 15.1608M10.9393 15.3193C11.0029 15.425 11.0214 15.5493 10.9916 15.6689L10.3061 15.1608M11.3815 15.039C11.3837 15.0426 11.3859 15.0462 11.3881 15.0498L11.3815 15.039ZM11.3815 15.039C11.3658 15.0512 11.3499 15.0631 11.3337 15.0747C11.3348 15.0765 11.3359 15.0783 11.3369 15.0801L11.3815 15.039ZM11.3092 14.3312C11.3427 14.2671 11.3688 14.1987 11.3867 14.1269L11.3092 14.3312ZM11.3092 14.3312C11.3259 14.3416 11.3424 14.3523 11.3588 14.3633C11.396 14.2941 11.4249 14.2197 11.4445 14.1413C11.5083 13.8863 11.4688 13.6214 11.3333 13.3954M11.3092 14.3312L11.3867 14.1268C11.4465 13.8877 11.4088 13.6374 11.2824 13.4264L11.2823 13.4262C11.2822 13.4261 11.2822 13.4261 11.2822 13.4261L11.3333 13.3954M11.3333 13.3954C11.198 13.1698 10.9828 13.0102 10.7275 12.9464M10.7275 12.9464L10.4904 12.9166M10.4904 12.9166C10.4926 12.9366 10.4943 12.9566 10.4957 12.9766M10.4904 12.9166C10.4892 12.9166 10.488 12.9166 10.4868 12.9166C10.3298 12.9166 10.1757 12.9568 10.034 13.0307M10.4904 12.9166L10.034 13.0307M10.4957 12.9766C10.4964 12.9875 10.497 12.9983 10.4975 13.0092L10.4868 13.0097L10.1987 13.0231M10.4957 12.9766C10.4927 12.9766 10.4897 12.9766 10.4868 12.9766C10.3888 12.9767 10.2917 12.9923 10.1987 13.0231M10.1987 13.0231L10.034 13.0307M10.1987 13.0231C10.1514 13.0387 10.1052 13.0582 10.0605 13.0816C10.0443 13.09 10.0283 13.099 10.0124 13.1085L10.0123 13.1086L9.97928 13.1284M10.034 13.0307L9.7695 13.2542L9.76959 13.2542L9.95288 13.3001C9.95287 13.3001 9.95286 13.3002 9.95285 13.3002C9.96716 13.2431 9.97591 13.1856 9.97928 13.1284M10.034 13.0307L9.96313 12.895M10.034 13.0307C10.0266 12.8726 9.98495 12.7169 9.90496 12.578C9.88677 12.5861 9.86875 12.5945 9.85091 12.6033M9.97928 13.1284C9.98116 13.0966 9.98137 13.0648 9.97995 13.0332C9.97786 12.9867 9.97222 12.9405 9.96313 12.895M9.97928 13.1284L9.96313 12.895M9.96313 12.895L9.81925 12.6194C9.82974 12.6139 9.84029 12.6085 9.85091 12.6033M9.96313 12.895L9.81437 12.5464C9.82728 12.565 9.83946 12.584 9.85091 12.6033M9.96313 12.895C9.94274 12.793 9.90497 12.6945 9.85091 12.6033M11.0425 14.7122L11.1219 14.5777C11.0875 14.6098 11.0506 14.6395 11.0112 14.6663C10.9961 14.6767 10.9807 14.6866 10.9649 14.6961L10.9647 14.6962L10.9311 14.7163L11.0425 14.7122ZM3.63173 12.5526L3.57897 12.5248C3.56927 12.5422 3.54513 12.5857 3.50946 12.65C3.50063 12.6659 3.49109 12.6831 3.48089 12.7015C3.49907 12.7105 3.51742 12.7185 3.53579 12.7254C3.56716 12.6689 3.59914 12.6113 3.63173 12.5526ZM7.77871 17.8232C7.77866 17.8232 7.77861 17.8232 7.77856 17.8233L7.77871 17.8232Z" fill="#4CAF4F" stroke="#4CAF4F" stroke-width="0.928093"/>
<path d="M19.4805 13.3884L19.4805 13.3885L19.4805 13.3884ZM19.4805 13.3884C19.3833 13.2143 19.3872 12.9998 19.4902 12.8281L19.4805 13.3884ZM13.7389 12.9762C13.6664 12.9768 13.5935 12.986 13.5216 13.004L13.7389 12.9762ZM13.7389 12.9762C13.7403 12.9562 13.742 12.9363 13.7442 12.9163L13.7389 12.9762ZM19.0629 13.7139L19.0235 13.6429L19.0629 13.7139ZM17.9447 15.3414C17.9446 15.3413 17.9445 15.3413 17.9444 15.3412L17.9446 15.3413L17.9447 15.3414ZM16.4559 17.8234C16.4558 17.8233 16.4556 17.8232 16.4555 17.8232L16.4559 17.8234ZM16.4554 17.8231L16.4555 17.8231L16.4554 17.8231Z" fill="#4CAF4F" stroke="#4CAF4F" stroke-width="0.928093"/>
</svg>
