<svg width="309" height="230" viewBox="0 0 309 230" fill="none" xmlns="http://www.w3.org/2000/svg">
<path d="M154.599 229.353C220.42 229.353 273.778 226.237 273.778 222.395C273.778 218.552 220.42 215.437 154.599 215.437C88.7778 215.437 35.4194 218.552 35.4194 222.395C35.4194 226.237 88.7778 229.353 154.599 229.353Z" fill="#F5F5F5"/>
<path d="M215.605 66.9987L209.508 64.54C209.508 64.54 201.462 79.2123 199.157 79.9561C196.022 80.9642 189.531 83.7671 185.683 84.2588C185.16 84.8735 184.306 86.7851 184.386 87.4797C189.555 89.207 200.915 86.9142 203.349 85.1071C208.887 81.0072 215.605 66.9987 215.605 66.9987Z" fill="#E58A7B"/>
<path d="M217.48 63.661C218.617 67.8593 212.458 76.3049 212.458 76.3049L204.387 71.7809C204.387 71.7809 205.9 68.308 207.744 64.7736C210.7 59.0633 216.183 58.8727 217.48 63.661Z" fill="#4CAF4F"/>
<path opacity="0.2" d="M217.48 63.661C218.617 67.8593 212.458 76.3049 212.458 76.3049L204.387 71.7809C204.387 71.7809 205.9 68.308 207.744 64.7736C210.7 59.0633 216.183 58.8727 217.48 63.661Z" fill="black"/>
<path opacity="0.2" d="M207.59 73.5881L210.768 75.3706L211.327 65.6157C209.477 67.0356 208.174 71.3138 207.59 73.5881Z" fill="black"/>
<path d="M212.169 60.5014C212.169 60.5014 205.887 74.4791 209.551 100.504H234.304C234.697 96.7057 233.394 78.1671 238.109 60.2678C235.393 59.7371 232.646 59.386 229.884 59.2167C226.381 59.0137 222.87 59.0137 219.367 59.2167C216.939 59.4633 214.533 59.8927 212.169 60.5014Z" fill="#4CAF4F"/>
<path opacity="0.2" d="M212.169 60.5014C212.169 60.5014 205.887 74.4791 209.551 100.504H234.304C234.697 96.7057 233.394 78.1671 238.109 60.2678C235.393 59.7371 232.646 59.386 229.884 59.2167C226.381 59.0137 222.87 59.0137 219.367 59.2167C216.939 59.4633 214.533 59.8927 212.169 60.5014Z" fill="black"/>
<g style="mix-blend-mode:multiply">
<path d="M206.428 222.948C206.391 223.612 215.777 224.146 227.389 224.146C239 224.146 248.454 223.612 248.49 222.948C248.527 222.284 239.147 221.755 227.53 221.755C215.913 221.755 206.471 222.29 206.428 222.948Z" fill="#E8ECF1"/>
</g>
<path d="M222.951 205.505L218.561 207.205L222.342 216.974L226.733 215.275L222.951 205.505Z" fill="#E58A7B"/>
<path d="M242.528 218.221H237.9L236.203 207.507H240.832L242.528 218.221Z" fill="#E58A7B"/>
<path d="M237.58 217.686H242.78C242.87 217.686 242.957 217.719 243.026 217.777C243.095 217.836 243.14 217.917 243.155 218.006L243.825 222.118C243.839 222.221 243.831 222.326 243.801 222.426C243.771 222.525 243.72 222.617 243.651 222.696C243.582 222.774 243.497 222.836 243.402 222.879C243.307 222.921 243.204 222.942 243.1 222.942C241.286 222.911 240.414 222.8 238.127 222.8C236.719 222.8 233.824 222.948 231.87 222.948C229.915 222.948 229.786 221.03 230.591 220.852C234.205 220.071 235.607 219.008 236.812 217.975C237.024 217.788 237.297 217.686 237.58 217.686Z" fill="#263238"/>
<path d="M222.213 216.1L227.13 214.662C227.218 214.637 227.312 214.643 227.396 214.679C227.479 214.715 227.549 214.778 227.591 214.859L229.435 218.547C229.478 218.64 229.5 218.742 229.5 218.845C229.499 218.948 229.476 219.049 229.432 219.142C229.388 219.236 229.324 219.318 229.245 219.384C229.166 219.45 229.074 219.498 228.974 219.524C227.186 220.016 225.987 220.317 223.75 220.969C222.207 221.417 220.633 222.149 219.109 222.634C218.052 222.972 215.568 222.985 214.284 222.985C212.384 222.985 211.96 220.981 212.778 220.889C214.837 220.661 215.114 220.766 216.251 220.194C218.111 219.381 219.798 218.216 221.217 216.764C221.485 216.459 221.828 216.23 222.213 216.1Z" fill="#263238"/>
<path d="M186.457 84.234L181.368 82.1011L179.272 87.7438C181.358 88.0615 183.48 88.0615 185.566 87.7438L186.457 84.234Z" fill="#E58A7B"/>
<path d="M177.581 81.9536L177.446 85.7031L179.272 87.7316L181.368 82.0888L177.581 81.9536Z" fill="#E58A7B"/>
<path d="M223.553 206.335L219.149 208.035L221.1 213.087L225.504 211.387L223.553 206.335Z" fill="#CF6F64"/>
<path d="M240.832 207.507H236.203L237.082 213.033H241.711L240.832 207.507Z" fill="#CF6F64"/>
<path opacity="0.2" d="M208.764 93.4665C208.856 94.579 208.961 95.7162 209.096 96.884L227.499 90.9094C230.373 90.0576 232.871 88.2515 234.58 85.7892C234.654 84.148 234.746 82.4207 234.888 80.6197C234.949 79.7469 235.023 78.8495 235.103 77.9398C235.183 77.03 235.293 76.022 235.41 75.0508L208.764 93.4665Z" fill="black"/>
<path d="M214.775 73.305L214.161 73.2313C214.523 70.1579 216.816 67.7361 219.232 67.7975V68.4122C217.117 68.3692 215.101 70.5513 214.775 73.305Z" fill="white"/>
<path d="M218.052 78.9788H217.947V78.3641C220.062 78.444 222.047 76.2373 222.373 73.4897L222.988 73.5635C222.662 76.5693 220.443 78.9788 218.052 78.9788Z" fill="white"/>
<path d="M229.54 47.3721C228.673 50.7589 227.653 56.961 229.884 59.2169C229.884 59.2169 228.323 62.6529 222.035 62.6529C216.288 62.6529 219.367 59.2169 219.367 59.2169C223.19 58.3194 223.258 55.5288 222.754 52.8857L229.54 47.3721Z" fill="#E58A7B"/>
<path d="M226.774 49.6216L222.76 52.8855C222.885 53.4929 222.957 54.1098 222.975 54.7295C224.149 55.8974 226.503 52.9408 226.743 51.4287C226.865 50.8334 226.875 50.2207 226.774 49.6216Z" fill="#CF6F64"/>
<path d="M215.857 47.3292C216.137 47.8132 216.513 48.2345 216.962 48.5666C217.412 48.8987 217.925 49.1345 218.47 49.2592C219.945 49.585 220.683 48.2266 220.277 46.862C219.914 45.6327 218.703 43.9792 217.203 44.2619C216.882 44.3281 216.581 44.4703 216.326 44.6766C216.071 44.8829 215.87 45.1473 215.738 45.4477C215.606 45.748 215.548 46.0756 215.569 46.403C215.59 46.7303 215.689 47.0479 215.857 47.3292Z" fill="#CF6F64"/>
<path d="M218.298 36.4924C215.999 37.5435 215.187 46.6776 218.076 48.0299C220.965 49.3822 222.649 34.4947 218.298 36.4924Z" fill="#263238"/>
<path d="M230.241 42.2767C229.687 46.8621 229.626 49.5606 227.167 51.9086C226.405 52.6878 225.443 53.2413 224.386 53.508C223.33 53.7747 222.22 53.7442 221.18 53.4198C220.139 53.0955 219.209 52.49 218.491 51.6701C217.773 50.8502 217.295 49.8479 217.111 48.7738C216.367 44.6555 217.394 37.851 221.992 36.0254C222.958 35.5993 224.02 35.4394 225.069 35.5621C226.118 35.6849 227.114 36.0859 227.956 36.7236C228.797 37.3613 229.453 38.2125 229.855 39.1889C230.256 40.1653 230.39 41.2314 230.241 42.2767Z" fill="#E58A7B"/>
<path d="M222.686 38.865C226.092 37.9983 228.593 37.4082 227.696 40.2419C226.51 44.0283 225.084 47.6917 226.995 47.8577C228.163 47.9622 233.326 45.7739 232.669 43.555C232.097 41.6249 234.513 41.0962 234.943 40.1189C236.535 36.5784 231.98 37.0455 232.792 34.8942C233.603 32.7428 229.104 29.2761 226.645 31.0033C222.643 33.7939 215.777 33.7509 219.386 29.1593C221.973 25.883 217.357 26.553 217.357 26.553C217.357 26.553 220.148 28.2065 215.452 30.7636C210.485 33.4927 215.04 40.8258 222.686 38.865Z" fill="#263238"/>
<path d="M232.048 47.3292C231.376 48.3019 230.366 48.9899 229.214 49.2592C227.696 49.585 227.112 48.2266 227.684 46.862C228.194 45.6327 229.595 43.9792 231.046 44.2619C232.497 44.5447 232.829 46.1244 232.048 47.3292Z" fill="#E58A7B"/>
<path d="M209.551 100.504C209.551 100.504 205.396 137.692 205.07 151.805C204.738 166.484 219.152 212.283 219.152 212.283L226.528 209.21C226.528 209.21 217.923 167.363 219.152 152.948C220.455 137.231 225.84 100.529 225.84 100.529L209.551 100.504Z" fill="#4CAF4F"/>
<path opacity="0.2" d="M219.877 110.714C216.564 117.586 218.795 131.177 220.59 139.229C221.273 133.543 222.084 127.372 222.852 121.662C222.779 112.884 222.096 106.104 219.877 110.714Z" fill="black"/>
<path d="M226.202 206.776C226.239 206.776 227.075 209.124 227.075 209.124L218.568 212.701L217.228 210.206L226.202 206.776Z" fill="#4CAF4F"/>
<path d="M218.334 100.504C218.334 100.504 221.512 135.873 223.614 149.119C225.926 163.632 234.986 211.963 234.986 211.963H243.462C243.462 211.963 238.385 164.806 237.426 150.434C236.381 134.846 234.304 100.504 234.304 100.504H218.334Z" fill="#4CAF4F"/>
<path d="M243.591 209.757C243.628 209.757 243.874 212.124 243.874 212.124H234.556L233.892 209.407L243.591 209.757Z" fill="#4CAF4F"/>
<path opacity="0.2" d="M240.346 206.954C240.327 206.954 240.308 206.947 240.293 206.935C240.279 206.923 240.269 206.905 240.266 206.886C240.217 206.456 235.638 163.859 234.777 150.951C233.843 136.949 231.962 105.889 231.943 105.576C231.943 105.565 231.944 105.555 231.947 105.545C231.95 105.536 231.956 105.527 231.963 105.519C231.97 105.512 231.978 105.506 231.987 105.502C231.997 105.498 232.007 105.496 232.017 105.496C232.037 105.496 232.057 105.503 232.072 105.517C232.086 105.53 232.095 105.549 232.097 105.569C232.097 105.883 233.996 136.918 234.931 150.945C235.791 163.853 240.371 206.419 240.414 206.88C240.415 206.89 240.415 206.901 240.412 206.911C240.41 206.921 240.405 206.93 240.399 206.938C240.393 206.946 240.385 206.953 240.375 206.958C240.366 206.963 240.356 206.965 240.346 206.966V206.954Z" fill="black"/>
<path d="M223.209 43.555C223.209 43.93 222.975 44.2312 222.729 44.2312C222.484 44.2312 222.305 43.93 222.33 43.555C222.354 43.1801 222.563 42.8789 222.809 42.8789C223.055 42.8789 223.233 43.1862 223.209 43.555Z" fill="#263238"/>
<path d="M218.992 43.555C218.992 43.93 218.752 44.2312 218.513 44.2312C218.273 44.2312 218.089 43.93 218.107 43.555C218.125 43.1801 218.347 42.8789 218.593 42.8789C218.838 42.8789 219.017 43.1862 218.992 43.555Z" fill="#263238"/>
<path d="M220.32 43.7456C219.807 44.8906 219.145 45.9631 218.353 46.9358C218.968 47.5504 220.117 47.2677 220.117 47.2677L220.32 43.7456Z" fill="#DF5753"/>
<path d="M220.43 48.8349C220.416 48.8349 220.402 48.832 220.389 48.8264C220.376 48.8208 220.364 48.8125 220.354 48.8022C220.345 48.7918 220.337 48.7795 220.332 48.7661C220.327 48.7527 220.325 48.7385 220.326 48.7243C220.328 48.6944 220.341 48.6662 220.362 48.6456C220.384 48.625 220.413 48.6136 220.443 48.6136C220.913 48.6169 221.378 48.5148 221.803 48.3148C222.229 48.1148 222.604 47.8221 222.901 47.458C222.923 47.4394 222.95 47.4292 222.978 47.4292C223.007 47.4292 223.034 47.4394 223.055 47.458C223.075 47.4787 223.086 47.5062 223.086 47.5349C223.086 47.5635 223.075 47.5911 223.055 47.6117C222.737 47.9986 222.336 48.3093 221.882 48.5209C221.427 48.7326 220.932 48.8399 220.43 48.8349Z" fill="#263238"/>
<path d="M223.959 42.4241C223.929 42.4392 223.897 42.4471 223.863 42.4471C223.83 42.4471 223.798 42.4392 223.768 42.4241C223.538 42.2755 223.277 42.183 223.004 42.1542C222.732 42.1253 222.457 42.1609 222.201 42.2581C222.176 42.2706 222.149 42.278 222.121 42.2798C222.093 42.2816 222.065 42.2778 222.039 42.2686C222.012 42.2594 221.988 42.2451 221.967 42.2264C221.947 42.2077 221.93 42.1851 221.918 42.1598C221.895 42.1051 221.895 42.0436 221.916 41.9885C221.938 41.9334 221.981 41.889 222.035 41.8648C222.356 41.7335 222.704 41.6817 223.05 41.7138C223.396 41.7459 223.729 41.861 224.02 42.0492C224.044 42.0652 224.064 42.0857 224.079 42.1096C224.095 42.1334 224.106 42.1602 224.111 42.1882C224.116 42.2162 224.115 42.245 224.109 42.2728C224.103 42.3006 224.092 42.327 224.076 42.3503C224.044 42.3856 224.004 42.4112 223.959 42.4241Z" fill="#263238"/>
<path d="M217.363 41.1944C217.331 41.1865 217.301 41.1694 217.277 41.1452C217.257 41.1252 217.241 41.1013 217.229 41.0749C217.218 41.0485 217.213 41.0202 217.213 40.9916C217.213 40.9629 217.218 40.9346 217.229 40.9082C217.241 40.8818 217.257 40.8579 217.277 40.8379C217.513 40.5737 217.806 40.3674 218.135 40.2352C218.463 40.103 218.817 40.0484 219.17 40.0757C219.199 40.0801 219.226 40.0902 219.25 40.1054C219.274 40.1207 219.295 40.1408 219.311 40.1644C219.327 40.188 219.338 40.2147 219.344 40.2428C219.349 40.2709 219.349 40.2998 219.343 40.3277C219.329 40.3846 219.296 40.4348 219.248 40.4687C219.201 40.5027 219.142 40.5181 219.084 40.5121C218.805 40.4945 218.525 40.5407 218.267 40.6472C218.008 40.7537 217.777 40.9177 217.591 41.1268C217.563 41.1579 217.527 41.1807 217.487 41.1926C217.446 41.2045 217.404 41.2052 217.363 41.1944Z" fill="#263238"/>
<path d="M240.487 66.3164L234.095 64.6138C234.095 64.6138 227.825 80.0483 225.606 81.0502C222.594 82.427 214.966 87.1969 211.721 89.4528C211.542 90.2211 211.684 92.2557 212.089 92.8151C217.621 91.807 228.212 87.7317 230.425 85.6602C235.472 80.9334 240.487 66.3164 240.487 66.3164Z" fill="#E58A7B"/>
<path d="M236.025 218.498C235.713 218.522 235.402 218.438 235.146 218.258C235.067 218.187 235.007 218.096 234.974 217.994C234.941 217.893 234.934 217.785 234.955 217.68C234.959 217.615 234.981 217.552 235.017 217.498C235.054 217.444 235.105 217.4 235.164 217.373C235.681 217.109 237.125 218.024 237.291 218.129C237.309 218.14 237.323 218.157 237.331 218.177C237.339 218.197 237.34 218.219 237.334 218.24C237.329 218.261 237.318 218.281 237.303 218.297C237.288 218.313 237.269 218.325 237.248 218.332C236.847 218.43 236.437 218.486 236.025 218.498ZM235.41 217.539C235.364 217.528 235.315 217.528 235.269 217.539C235.245 217.551 235.226 217.569 235.213 217.592C235.199 217.615 235.193 217.642 235.195 217.668C235.179 217.739 235.181 217.814 235.203 217.884C235.224 217.954 235.264 218.018 235.318 218.067C235.558 218.283 236.16 218.307 236.953 218.154C236.481 217.843 235.949 217.633 235.392 217.539H235.41Z" fill="#4CAF4F"/>
<path d="M237.217 218.332C237.201 218.337 237.184 218.337 237.168 218.332C236.707 218.074 235.84 217.059 235.969 216.543C235.989 216.461 236.035 216.388 236.101 216.336C236.167 216.283 236.248 216.255 236.332 216.254C236.415 216.243 236.499 216.25 236.578 216.274C236.658 216.299 236.731 216.34 236.793 216.395C237.303 216.832 237.334 218.172 237.334 218.24C237.337 218.26 237.333 218.28 237.323 218.298C237.313 218.316 237.298 218.33 237.279 218.338C237.258 218.342 237.237 218.34 237.217 218.332ZM236.394 216.457H236.351C236.209 216.457 236.191 216.537 236.185 216.568C236.111 216.869 236.658 217.637 237.113 218C237.111 217.481 236.95 216.974 236.652 216.549C236.58 216.487 236.488 216.454 236.394 216.457Z" fill="#4CAF4F"/>
<path d="M219.705 217.729C219.329 217.86 218.92 217.86 218.543 217.729C218.458 217.683 218.386 217.616 218.333 217.534C218.28 217.453 218.249 217.359 218.242 217.262C218.234 217.201 218.242 217.14 218.265 217.083C218.287 217.026 218.324 216.975 218.371 216.936C218.863 216.494 220.873 216.936 221.1 217.022C221.122 217.028 221.141 217.041 221.155 217.059C221.168 217.076 221.175 217.098 221.174 217.121C221.175 217.144 221.169 217.167 221.157 217.186C221.145 217.206 221.128 217.222 221.107 217.231C220.654 217.436 220.185 217.602 219.705 217.729ZM218.703 216.998C218.633 217.012 218.567 217.044 218.513 217.09C218.493 217.105 218.478 217.125 218.469 217.147C218.461 217.17 218.459 217.195 218.464 217.219C218.468 217.284 218.488 217.346 218.522 217.401C218.556 217.456 218.604 217.501 218.66 217.533C218.986 217.705 219.742 217.569 220.719 217.158C220.061 216.992 219.379 216.938 218.703 216.998Z" fill="#4CAF4F"/>
<path d="M221.088 217.231H221.039C220.424 217.121 219.195 216.414 219.158 215.885C219.158 215.762 219.213 215.59 219.508 215.492C219.608 215.456 219.714 215.441 219.82 215.448C219.925 215.454 220.028 215.482 220.123 215.529C220.787 215.855 221.137 217.035 221.156 217.09C221.16 217.109 221.16 217.128 221.154 217.146C221.149 217.165 221.139 217.181 221.125 217.195C221.116 217.21 221.103 217.222 221.088 217.231ZM219.631 215.676H219.57C219.379 215.744 219.379 215.824 219.379 215.848C219.379 216.168 220.271 216.752 220.891 216.949C220.748 216.455 220.446 216.023 220.031 215.719C219.908 215.657 219.765 215.641 219.631 215.676Z" fill="#4CAF4F"/>
<path d="M212.243 89.0903L205.832 92.0408L205.088 93.8848L207.455 95.4768C207.455 95.4768 211.88 94.9974 213.14 92.1514L212.243 89.0903Z" fill="#E58A7B"/>
<path d="M212.514 92.9195C212.37 91.6877 211.964 90.5011 211.321 89.4404L212.335 88.6782C213.098 89.9004 213.585 91.2745 213.761 92.7043L212.514 92.9195Z" fill="#263238"/>
<path d="M213.608 89.9627C213.743 90.1759 213.81 90.4256 213.798 90.678C213.787 90.9303 213.698 91.173 213.544 91.3731C213.389 91.5731 213.177 91.7208 212.936 91.796C212.695 91.8712 212.436 91.8702 212.196 91.7933C211.955 91.7164 211.744 91.5672 211.591 91.3661C211.439 91.1649 211.351 90.9216 211.342 90.6692C211.332 90.4168 211.4 90.1675 211.538 89.9553C211.675 89.7431 211.874 89.5783 212.108 89.4833C212.37 89.3494 212.675 89.3247 212.956 89.4145C213.237 89.5042 213.471 89.7013 213.608 89.9627Z" fill="#263238"/>
<path d="M201.498 94.4255L202.353 95.286L208.106 92.8273L205.832 92.0405L201.498 94.4255Z" fill="#E58A7B"/>
<path opacity="0.2" d="M226.202 206.776C226.239 206.776 227.075 209.124 227.075 209.124L218.568 212.701L217.228 210.206L226.202 206.776Z" fill="black"/>
<path opacity="0.2" d="M243.591 209.757C243.628 209.757 243.874 212.124 243.874 212.124H234.556L233.892 209.407L243.591 209.757Z" fill="black"/>
<path d="M242.153 64.5461C243.843 69.9983 237.236 77.4543 237.236 77.4543L228.108 73.7294C229.19 70.5781 230.437 67.486 231.845 64.4662C234.648 58.424 240.444 59.0448 242.153 64.5461Z" fill="#4CAF4F"/>
<path opacity="0.2" d="M242.153 64.5461C243.843 69.9983 237.236 77.4543 237.236 77.4543L228.108 73.7294C229.19 70.5781 230.437 67.486 231.845 64.4662C234.648 58.424 240.444 59.0448 242.153 64.5461Z" fill="black"/>
<path d="M151.452 9.91992H147.524V10.553H151.452V9.91992Z" fill="#4CAF4F"/>
<path d="M202.296 34.9779L201.821 45.5273L202.454 45.5558L202.929 35.0064L202.296 34.9779Z" fill="#4CAF4F"/>
<path d="M201.074 12.7598H128.543L121.794 163.798H194.325L201.074 12.7598Z" fill="#4CAF4F"/>
<path opacity="0.56" d="M198.911 14.8374H126.379L119.63 165.875H192.162L198.911 14.8374Z" fill="#FAFAFA"/>
<path opacity="0.07" d="M196.747 16.9087H124.215L117.46 167.947H189.992L196.747 16.9087Z" fill="#4CAF4F"/>
<path d="M188.492 82.7837H126.582L126.066 94.3396H187.976L188.492 82.7837Z" fill="white"/>
<path d="M160.629 74.3501H126.957L126.729 79.5195H160.401L160.629 74.3501Z" fill="#4CAF4F"/>
<path d="M187.097 113.972H125.187L124.67 125.528H186.58L187.097 113.972Z" fill="white"/>
<path opacity="0.47" d="M175.744 141.135H134.112L133.491 154.983H175.123L175.744 141.135Z" fill="#4CAF4F"/>
<path d="M172.959 157.135H131.327C131.309 157.14 131.29 157.14 131.272 157.135C131.266 157.117 131.266 157.097 131.272 157.08L131.887 143.225C131.887 143.215 131.888 143.206 131.892 143.197C131.896 143.189 131.902 143.181 131.908 143.175C131.915 143.168 131.924 143.163 131.933 143.16C131.941 143.157 131.951 143.156 131.96 143.157H173.592C173.6 143.153 173.608 143.151 173.617 143.151C173.625 143.151 173.634 143.153 173.641 143.157C173.646 143.165 173.648 143.173 173.648 143.182C173.648 143.19 173.646 143.199 173.641 143.206L173.039 157.092C173.032 157.106 173.02 157.118 173.006 157.126C172.992 157.133 172.975 157.137 172.959 157.135ZM131.401 156.987H172.885L173.5 143.28H132.016L131.401 156.987Z" fill="white"/>
<path d="M153.357 105.539H125.562L125.334 110.714H153.124L153.357 105.539Z" fill="#4CAF4F"/>
<path d="M174.951 45.4542C174.792 48.8173 173.596 52.0488 171.527 54.705C169.995 56.7114 168.025 58.3403 165.766 59.4665C163.507 60.5928 161.02 61.1865 158.496 61.2022C156.456 61.2177 154.435 60.8155 152.557 60.0203C150.678 59.2251 148.982 58.0538 147.574 56.5785C146.165 55.1031 145.074 53.355 144.366 51.4419C143.659 49.5287 143.351 47.491 143.461 45.4542C143.677 41.2277 145.5 37.2434 148.556 34.3162C151.612 31.3889 155.672 29.7399 159.903 29.7062C161.945 29.6872 163.968 30.0869 165.849 30.8807C167.729 31.6746 169.427 32.8456 170.838 34.3215C172.248 35.7974 173.34 37.5468 174.048 39.4616C174.755 41.3764 175.063 43.4159 174.951 45.4542Z" fill="white"/>
<path d="M176.432 33.0008C176.392 33.895 176.074 34.7545 175.522 35.4595C175.114 35.9924 174.59 36.425 173.989 36.7243C173.388 37.0237 172.727 37.1818 172.056 37.1867C171.405 37.1906 170.764 37.0353 170.187 36.7342C169.611 36.4331 169.117 35.9955 168.749 35.4595C168.261 34.7352 168.02 33.873 168.06 33.0008C168.12 31.8786 168.605 30.8214 169.417 30.0447C170.229 29.268 171.307 28.8303 172.431 28.821C172.973 28.816 173.51 28.9221 174.01 29.1327C174.509 29.3434 174.96 29.6541 175.335 30.0457C175.71 30.4372 176.001 30.9015 176.189 31.4097C176.378 31.9179 176.461 32.4594 176.432 33.0008Z" fill="#4CAF4F"/>
<path d="M133.251 88.5614C133.222 89.0567 133.005 89.5224 132.646 89.8646C132.287 90.2068 131.811 90.4001 131.315 90.4054C131.075 90.4082 130.838 90.3619 130.617 90.2693C130.396 90.1767 130.196 90.0397 130.03 89.8669C129.864 89.6941 129.736 89.489 129.652 89.2645C129.569 89.0399 129.532 88.8006 129.545 88.5614C129.571 88.065 129.787 87.5976 130.147 87.2548C130.507 86.9121 130.984 86.7198 131.481 86.7173C131.72 86.7154 131.957 86.7623 132.178 86.8552C132.398 86.9482 132.598 87.0852 132.763 87.2578C132.929 87.4305 133.058 87.6351 133.142 87.8593C133.226 88.0834 133.263 88.3223 133.251 88.5614Z" fill="#263238"/>
<path d="M141.537 88.5614C141.509 89.0573 141.293 89.5238 140.934 89.8663C140.574 90.2088 140.097 90.4016 139.601 90.4055C139.362 90.4075 139.125 90.3605 138.905 90.2675C138.684 90.1745 138.485 90.0374 138.32 89.8647C138.155 89.6919 138.027 89.4872 137.944 89.2631C137.86 89.039 137.824 88.8002 137.837 88.5614C137.863 88.0661 138.078 87.5996 138.436 87.257C138.795 86.9144 139.271 86.7214 139.767 86.7174C140.006 86.7146 140.244 86.7609 140.465 86.8535C140.686 86.9461 140.885 87.0831 141.051 87.2559C141.217 87.4287 141.346 87.6338 141.43 87.8583C141.513 88.0829 141.55 88.3222 141.537 88.5614Z" fill="#263238"/>
<path d="M149.829 88.5614C149.801 89.0573 149.585 89.5238 149.225 89.8663C148.866 90.2088 148.389 90.4016 147.893 90.4055C147.653 90.4074 147.416 90.3605 147.196 90.2676C146.975 90.1746 146.776 90.0376 146.61 89.865C146.444 89.6924 146.316 89.4877 146.232 89.2635C146.148 89.0394 146.111 88.8005 146.122 88.5614C146.151 88.0656 146.366 87.5991 146.726 87.2566C147.086 86.9141 147.562 86.7213 148.059 86.7174C148.298 86.7146 148.536 86.7609 148.757 86.8535C148.978 86.9461 149.177 87.0831 149.343 87.2559C149.509 87.4287 149.638 87.6338 149.721 87.8583C149.805 88.0829 149.842 88.3222 149.829 88.5614Z" fill="#263238"/>
<path d="M131.856 119.75C131.826 120.245 131.61 120.711 131.251 121.053C130.891 121.395 130.416 121.589 129.92 121.594C129.68 121.596 129.443 121.549 129.223 121.456C129.002 121.363 128.803 121.226 128.637 121.053C128.471 120.881 128.343 120.676 128.259 120.452C128.175 120.228 128.138 119.989 128.149 119.75C128.177 119.254 128.393 118.787 128.753 118.445C129.112 118.102 129.589 117.91 130.086 117.906C130.325 117.904 130.562 117.951 130.783 118.044C131.003 118.137 131.202 118.274 131.368 118.446C131.534 118.619 131.663 118.824 131.746 119.048C131.83 119.272 131.868 119.511 131.856 119.75Z" fill="#263238"/>
<path d="M140.142 119.75C140.114 120.245 139.899 120.71 139.54 121.053C139.182 121.395 138.707 121.588 138.212 121.594C137.972 121.597 137.734 121.55 137.513 121.458C137.293 121.365 137.093 121.228 136.927 121.055C136.761 120.883 136.632 120.678 136.549 120.453C136.465 120.228 136.429 119.989 136.441 119.75C136.469 119.254 136.685 118.787 137.045 118.445C137.404 118.102 137.881 117.91 138.378 117.906C138.617 117.904 138.854 117.951 139.074 118.044C139.294 118.137 139.493 118.274 139.658 118.447C139.823 118.619 139.952 118.824 140.035 119.048C140.118 119.272 140.154 119.511 140.142 119.75Z" fill="#263238"/>
<path d="M148.452 119.75C148.424 120.246 148.208 120.712 147.849 121.055C147.489 121.397 147.012 121.59 146.516 121.594C146.277 121.595 146.04 121.547 145.82 121.454C145.6 121.361 145.401 121.224 145.235 121.052C145.07 120.879 144.941 120.675 144.857 120.451C144.773 120.227 144.735 119.989 144.746 119.75C144.775 119.255 144.991 118.789 145.351 118.447C145.71 118.104 146.186 117.911 146.682 117.906C146.921 117.903 147.159 117.949 147.38 118.042C147.601 118.135 147.801 118.272 147.966 118.444C148.132 118.617 148.261 118.822 148.345 119.047C148.428 119.271 148.465 119.511 148.452 119.75Z" fill="#263238"/>
<path d="M156.726 119.75C156.696 120.245 156.48 120.711 156.121 121.053C155.761 121.395 155.286 121.589 154.789 121.594C154.55 121.595 154.314 121.547 154.093 121.454C153.873 121.361 153.674 121.224 153.509 121.051C153.343 120.879 153.215 120.675 153.13 120.451C153.046 120.227 153.008 119.989 153.019 119.75C153.049 119.255 153.265 118.789 153.624 118.447C153.984 118.104 154.459 117.911 154.955 117.906C155.195 117.904 155.432 117.951 155.652 118.044C155.873 118.137 156.072 118.274 156.238 118.446C156.404 118.619 156.532 118.824 156.616 119.048C156.7 119.272 156.737 119.511 156.726 119.75Z" fill="#263238"/>
<path d="M165.048 119.75C165.019 120.245 164.803 120.711 164.443 121.053C164.084 121.395 163.608 121.589 163.112 121.594C162.873 121.597 162.635 121.55 162.414 121.458C162.193 121.365 161.993 121.228 161.827 121.055C161.662 120.883 161.533 120.677 161.449 120.453C161.366 120.228 161.329 119.989 161.342 119.75C161.37 119.254 161.586 118.787 161.945 118.445C162.305 118.102 162.781 117.91 163.278 117.906C163.517 117.904 163.755 117.951 163.975 118.044C164.196 118.137 164.395 118.274 164.561 118.446C164.726 118.619 164.855 118.824 164.939 119.048C165.023 119.272 165.06 119.511 165.048 119.75Z" fill="#263238"/>
<path d="M163.79 44.6343C166.363 42.1184 166.5 38.0857 164.095 35.6271C161.691 33.1684 157.656 33.2148 155.083 35.7307C152.511 38.2466 152.374 42.2793 154.779 44.7379C157.183 47.1966 161.218 47.1502 163.79 44.6343Z" fill="#4CAF4F"/>
<path d="M171.527 54.705C169.995 56.7114 168.025 58.3402 165.766 59.4665C163.507 60.5927 161.02 61.1865 158.496 61.2021C156.048 61.2229 153.633 60.6411 151.464 59.508C149.294 58.375 147.436 56.7255 146.055 54.705C149.042 51.73 153.769 49.7876 159.006 49.7876C164.243 49.7876 168.804 51.73 171.527 54.705Z" fill="#4CAF4F"/>
<path opacity="0.1" d="M163.79 44.6343C166.363 42.1184 166.5 38.0857 164.095 35.6271C161.691 33.1684 157.656 33.2148 155.083 35.7307C152.511 38.2466 152.374 42.2793 154.779 44.7379C157.183 47.1966 161.218 47.1502 163.79 44.6343Z" fill="white"/>
<path opacity="0.1" d="M171.527 54.705C169.995 56.7114 168.025 58.3402 165.766 59.4665C163.507 60.5927 161.02 61.1865 158.496 61.2021C156.048 61.2229 153.633 60.6411 151.464 59.508C149.294 58.375 147.436 56.7255 146.055 54.705C149.042 51.73 153.769 49.7876 159.006 49.7876C164.243 49.7876 168.804 51.73 171.527 54.705Z" fill="white"/>
<path d="M81.0898 97.1242C80.5059 98.4027 79.8912 99.8103 79.3564 101.175C78.8216 102.539 78.2746 103.947 77.8013 105.349C76.8349 108.11 76.0989 110.948 75.6008 113.831L75.4655 114.735C75.4526 114.89 75.4672 115.046 75.5085 115.196C75.6536 115.705 75.8821 116.187 76.1847 116.622C76.9741 117.747 77.8898 118.778 78.9138 119.695C79.9936 120.699 81.1262 121.645 82.3069 122.529C83.487 123.438 84.7287 124.324 85.9519 125.159L84.8024 127.317C81.8816 126.044 79.1093 124.455 76.5351 122.578C75.1617 121.576 73.9223 120.403 72.847 119.086C72.2096 118.303 71.7126 117.415 71.3779 116.462C71.1833 115.866 71.0838 115.244 71.0829 114.618C71.0829 114.47 71.0829 114.255 71.0829 114.151V113.849L71.1444 113.235C71.4967 110.032 72.1701 106.873 73.1543 103.806C73.6338 102.294 74.144 100.788 74.7279 99.3185C75.3119 97.8495 75.9142 96.4111 76.658 94.9175L81.0898 97.1242Z" fill="#E58A7B"/>
<path d="M85.0852 124.778L89.4309 122.578L88.3061 127.348C88.3061 127.348 85.3249 128.183 83.9419 126.733L85.0852 124.778Z" fill="#E58A7B"/>
<path d="M93.4079 123.358L92.2523 127.304L88.3061 127.348L89.4309 122.578L93.4079 123.358Z" fill="#E58A7B"/>
<path d="M99.5424 74.1108C99.7748 74.9627 100.098 75.787 100.507 76.5695C100.388 76.7051 100.234 76.8057 100.062 76.8609C99.8899 76.9161 99.7061 76.9237 99.5301 76.883L99.5424 74.1108Z" fill="#DF5753"/>
<path d="M99.4133 74.1476C99.6679 74.1476 99.8743 73.8312 99.8743 73.4408C99.8743 73.0504 99.6679 72.7339 99.4133 72.7339C99.1587 72.7339 98.9523 73.0504 98.9523 73.4408C98.9523 73.8312 99.1587 74.1476 99.4133 74.1476Z" fill="#263238"/>
<path d="M99.2781 72.7585L100.212 72.4941C100.212 72.4941 99.7575 73.2195 99.2781 72.7585Z" fill="#263238"/>
<path d="M87.5378 78.6226C88.0971 81.4808 88.6565 86.724 86.6526 88.6356C86.6526 88.6356 87.4394 91.5369 92.7564 91.5369C98.6019 91.5369 95.547 88.6356 95.547 88.6356C92.3568 87.8734 92.4367 85.5069 92.9961 83.2818L87.5378 78.6226Z" fill="#E58A7B"/>
<path d="M85.9826 72.1068C86.2777 76.8828 86.3023 78.9113 88.7118 81.3638C92.3445 85.0519 98.147 83.6504 99.2842 78.9051C100.311 74.6024 99.6592 67.5213 94.9815 65.622C93.9547 65.199 92.837 65.0449 91.7341 65.1744C90.6312 65.3038 89.5795 65.7125 88.6786 66.3617C87.7776 67.011 87.0572 67.8793 86.5855 68.8846C86.1137 69.8899 85.9062 70.9989 85.9826 72.1068Z" fill="#E58A7B"/>
<path d="M86.456 66.7344C84.0587 67.6073 80.8624 66.9557 82.1163 74.3502C83.444 82.1812 81.4033 84.7567 81.4033 84.7567C81.4033 84.7567 90.4944 86.6929 99.776 84.6399C99.776 84.6399 96.9423 79.6856 97.7352 76.0345C98.7495 71.4244 97.9504 69.7217 97.9504 69.7217C97.9504 69.7217 89.8244 65.5051 86.456 66.7344Z" fill="#263238"/>
<path d="M96.5981 74.5965C96.6006 75.5047 96.8606 76.3935 97.348 77.1597C97.9995 78.1555 98.7679 77.7744 98.9584 76.7172C99.1305 75.789 99.0015 74.1478 98.1717 73.5086C97.3418 72.8693 96.6104 73.4963 96.5981 74.5965Z" fill="#E58A7B"/>
<path d="M84.3722 67.5398C83.6838 65.6036 86.9661 62.6224 93.9119 63.8518C100.858 65.0811 101.159 70.8652 101.159 70.8652L99.7575 69.1933L99.819 70.9513L92.6826 72.322L84.3722 67.5398Z" fill="#263238"/>
<path d="M84.9623 88.9611C84.9213 88.6804 84.9915 88.3949 85.158 88.1652C85.3245 87.9356 85.5741 87.7801 85.8536 87.7318C88.0172 87.3752 92.9346 86.6499 95.4056 86.9941C97.2496 87.2523 97.7291 88.3218 97.809 89.2008C97.8215 89.3547 97.8009 89.5095 97.7486 89.6548C97.6963 89.8001 97.6136 89.9325 97.5058 90.0432C97.3981 90.1538 97.2679 90.2401 97.1241 90.2963C96.9802 90.3524 96.826 90.3771 96.6719 90.3687L85.9888 89.8893C85.7369 89.8765 85.4972 89.7772 85.3102 89.6081C85.1231 89.439 85.0002 89.2104 84.9623 88.9611Z" fill="#4CAF4F"/>
<path opacity="0.6" d="M84.9623 88.9611C84.9213 88.6804 84.9915 88.3949 85.158 88.1652C85.3245 87.9356 85.5741 87.7801 85.8536 87.7318C88.0172 87.3752 92.9346 86.6499 95.4056 86.9941C97.2496 87.2523 97.7291 88.3218 97.809 89.2008C97.8215 89.3547 97.8009 89.5095 97.7486 89.6548C97.6963 89.8001 97.6136 89.9325 97.5058 90.0432C97.3981 90.1538 97.2679 90.2401 97.1241 90.2963C96.9802 90.3524 96.826 90.3771 96.6719 90.3687L85.9888 89.8893C85.7369 89.8765 85.4972 89.7772 85.3102 89.6081C85.1231 89.439 85.0002 89.2104 84.9623 88.9611Z" fill="black"/>
<path d="M91.1398 196.345L95.1044 199.099L101.737 190.106L97.7721 187.358L91.1398 196.345Z" fill="#E58A7B"/>
<path d="M81.895 196.167L86.081 198.552L91.9511 189.043L87.7652 186.658L81.895 196.167Z" fill="#E58A7B"/>
<path d="M101.731 190.106L98.313 194.741L94.3484 191.993L97.766 187.358L101.731 190.106Z" fill="#CF6F64"/>
<path d="M87.7591 186.658L91.9512 189.049L88.927 193.948L84.7349 191.557L87.7591 186.658Z" fill="#CF6F64"/>
<path d="M94.4836 118.982C94.4836 118.982 109.961 138.486 107.054 157.141C104.712 172.207 91.1275 192.608 91.1275 192.608L84.741 189.436C89.2426 180.416 93.0841 171.081 96.2354 161.505C97.2072 158.532 97.4908 155.377 97.0649 152.279C96.639 149.18 95.5146 146.219 93.7767 143.618C85.9335 132.167 73.3695 138.983 81.8213 118.982H94.4836Z" fill="#4CAF4F"/>
<path opacity="0.6" d="M94.4836 118.982C94.4836 118.982 109.961 138.486 107.054 157.141C104.712 172.207 91.1275 192.608 91.1275 192.608L84.741 189.436C89.2426 180.416 93.0841 171.081 96.2354 161.505C97.2072 158.532 97.4908 155.377 97.0649 152.279C96.639 149.18 95.5146 146.219 93.7767 143.618C85.9335 132.167 73.3695 138.983 81.8213 118.982H94.4836Z" fill="black"/>
<path opacity="0.4" d="M102.075 131.509L99.8251 129.271C99.8251 129.45 104.183 156.354 105.406 163.915C106.128 161.706 106.681 159.446 107.06 157.153C108.498 148.001 105.492 138.651 102.075 131.509Z" fill="black"/>
<path d="M101.393 118.982C101.393 118.982 120.029 143.495 120.558 158.192C120.995 170.486 100.274 194.304 100.274 194.304L94.25 190.407C94.25 190.407 106.378 173.491 109.432 159.673C108.252 145.978 83.2965 118.982 83.2965 118.982H101.393Z" fill="#4CAF4F"/>
<path opacity="0.6" d="M101.393 118.982C101.393 118.982 120.029 143.495 120.558 158.192C120.995 170.486 100.274 194.304 100.274 194.304L94.25 190.407C94.25 190.407 106.378 173.491 109.432 159.673C108.252 145.978 83.2965 118.982 83.2965 118.982H101.393Z" fill="black"/>
<path d="M78.3361 89.7296C76.3446 90.2029 74.4329 97.4438 74.4329 97.4438L82.2209 102.644C82.2209 102.644 84.8148 96.9151 83.9051 94.4073C82.9646 91.7949 80.8378 89.1334 78.3361 89.7296Z" fill="#4CAF4F"/>
<path opacity="0.2" d="M79.8605 94.395L79.3196 100.708L82.2147 102.65C83.0141 100.85 83.6059 98.9656 83.9788 97.032L79.8605 94.395Z" fill="black"/>
<path d="M103.698 89.8708C103.698 89.8708 105.996 90.676 101.393 118.976H81.809C82.1409 110.985 82.147 106.067 78.3361 89.7294C81.0782 89.1643 83.8576 88.7987 86.6526 88.6353C89.6136 88.423 92.586 88.423 95.547 88.6353C99.3702 88.9857 103.698 89.8708 103.698 89.8708Z" fill="#4CAF4F"/>
<path d="M105.689 94.3951C106.132 95.6244 106.599 96.946 107.091 98.2183C107.582 99.4907 108.049 100.8 108.547 102.091L110.053 105.951L110.434 106.916L110.631 107.395L110.723 107.635C110.723 107.678 110.723 107.678 110.723 107.672C110.611 107.514 110.464 107.383 110.293 107.291C110.05 107.148 109.776 107.066 109.494 107.051C109.26 107.044 109.027 107.088 108.812 107.18C108.529 107.309 108.529 107.365 108.535 107.359C108.586 107.318 108.632 107.27 108.67 107.217C109.011 106.77 109.305 106.291 109.549 105.785C109.838 105.219 110.115 104.617 110.391 104.009C110.932 102.779 111.43 101.507 111.928 100.222C112.426 98.9375 112.899 97.6405 113.36 96.3313L114.762 92.4097L117.128 93.0243C116.661 95.8273 116.059 98.5564 115.333 101.335C114.983 102.718 114.571 104.088 114.104 105.472C113.87 106.166 113.612 106.855 113.317 107.561C113.01 108.329 112.631 109.065 112.186 109.762C112.023 109.996 111.842 110.218 111.645 110.426C111.331 110.765 110.95 111.035 110.527 111.219C110.15 111.38 109.743 111.456 109.334 111.44C108.876 111.423 108.43 111.29 108.037 111.053C107.574 110.764 107.19 110.365 106.918 109.891C106.826 109.731 106.746 109.571 106.691 109.455L106.574 109.221L106.341 108.742L105.873 107.789C105.259 106.51 104.644 105.219 104.109 103.923C103.575 102.626 103.009 101.31 102.48 99.9886C101.952 98.6671 101.479 97.3455 101.03 95.9195L105.689 94.3951Z" fill="#E58A7B"/>
<path d="M103.698 89.8712C106.052 90.4305 108.701 97.3887 108.701 97.3887L101.7 103.345C101.7 103.345 97.1697 95.7598 98.0856 93.258C99.0383 90.6518 100.624 89.1397 103.698 89.8712Z" fill="#4CAF4F"/>
<path d="M115.874 90.2093L118.333 88.1562L120.042 90.8178L118.782 93.0368C118.782 93.0368 116.778 94.8808 115.008 93.9403C114.727 93.3088 114.659 92.6029 114.816 91.9295C114.972 91.2562 115.344 90.6523 115.874 90.2093Z" fill="#E58A7B"/>
<path d="M122.771 88.1624L122.587 88.8324L118.696 89.4839L118.315 88.1562L122.771 88.1624Z" fill="#E58A7B"/>
<path d="M100.753 194.618L93.7337 190.081L94.9938 187.893L102.88 192.743L100.753 194.618Z" fill="#4CAF4F"/>
<path d="M88.8286 198.232C88.2127 198.157 87.6209 197.947 87.0952 197.617C87.0735 197.61 87.0547 197.596 87.0414 197.577C87.0281 197.558 87.0209 197.536 87.0209 197.513C87.0209 197.49 87.0281 197.468 87.0414 197.449C87.0547 197.43 87.0735 197.416 87.0952 197.408C87.2858 197.347 88.9392 196.837 89.4187 197.23C89.4726 197.275 89.5135 197.333 89.5373 197.399C89.5611 197.465 89.5668 197.536 89.5539 197.605C89.5454 197.716 89.5087 197.822 89.4474 197.915C89.3861 198.007 89.3021 198.083 89.2035 198.134C89.0884 198.197 88.9597 198.23 88.8286 198.232ZM87.4456 197.556C88.2139 197.949 88.8286 198.091 89.1236 197.943C89.1879 197.908 89.2419 197.856 89.2807 197.794C89.3194 197.731 89.3415 197.66 89.3449 197.587C89.3449 197.488 89.3449 197.445 89.2896 197.421C89.0314 197.212 88.1094 197.372 87.4333 197.556H87.4456Z" fill="#263238"/>
<path d="M87.1382 197.66C87.1058 197.66 87.0748 197.647 87.0521 197.624C87.043 197.607 87.0382 197.588 87.0382 197.568C87.0382 197.549 87.043 197.53 87.0521 197.513C87.0521 197.458 87.4517 196.124 88.0787 195.823C88.1587 195.786 88.2457 195.767 88.3337 195.767C88.4218 195.767 88.5088 195.786 88.5888 195.823C88.6752 195.85 88.7499 195.905 88.8011 195.98C88.8523 196.054 88.8772 196.144 88.8716 196.234C88.8286 196.788 87.7037 197.55 87.1874 197.679L87.1382 197.66ZM88.3307 195.982C88.2709 195.984 88.2122 195.999 88.1586 196.025C87.7775 196.21 87.464 196.929 87.3103 197.365C87.8512 197.138 88.595 196.536 88.6196 196.197C88.6196 196.142 88.6196 196.075 88.4782 196.013C88.4322 195.988 88.3823 195.972 88.3307 195.964V195.982Z" fill="#263238"/>
<path d="M97.6 200.887C96.9054 200.887 95.9404 199.996 95.4118 199.449C95.3983 199.43 95.391 199.408 95.391 199.384C95.391 199.361 95.3983 199.339 95.4118 199.32C95.4239 199.3 95.4412 199.284 95.4617 199.273C95.4823 199.262 95.5054 199.257 95.5285 199.258C95.7744 199.258 97.9073 199.578 98.2085 200.18C98.2404 200.234 98.2573 200.296 98.2573 200.359C98.2573 200.421 98.2404 200.483 98.2085 200.537C98.1634 200.631 98.0951 200.712 98.0102 200.772C97.9252 200.832 97.8264 200.87 97.7229 200.881L97.6 200.887ZM95.8174 199.535C96.5919 200.285 97.2742 200.703 97.6615 200.654C97.7293 200.645 97.7939 200.62 97.8496 200.58C97.9054 200.54 97.9505 200.488 97.9811 200.426C97.9949 200.405 98.0022 200.381 98.0022 200.356C98.0022 200.331 97.9949 200.306 97.9811 200.285C97.8213 199.953 96.6841 199.67 95.8174 199.535Z" fill="#263238"/>
<path d="M95.8851 199.505C95.7471 199.509 95.6091 199.498 95.4732 199.474C95.4543 199.471 95.4364 199.463 95.4213 199.451C95.4062 199.44 95.3944 199.424 95.3872 199.406C95.378 199.388 95.3732 199.368 95.3732 199.348C95.3732 199.328 95.378 199.308 95.3872 199.289C95.4241 199.246 96.2539 198.245 97.0407 198.177C97.2634 198.16 97.4841 198.23 97.6553 198.374C97.8951 198.583 97.8828 198.767 97.8213 198.884C97.6676 199.302 96.6043 199.505 95.8851 199.505ZM95.7253 199.277C96.4137 199.314 97.514 199.087 97.6553 198.785C97.6553 198.785 97.7045 198.687 97.5447 198.552C97.4811 198.497 97.4068 198.455 97.3265 198.43C97.2461 198.404 97.1614 198.396 97.0776 198.404C96.5476 198.552 96.0756 198.859 95.7253 199.283V199.277Z" fill="#263238"/>
<path d="M87.3042 196.996L82.0917 195.521C82.0019 195.494 81.9052 195.501 81.8201 195.541C81.735 195.58 81.6676 195.65 81.6307 195.736L79.8728 199.689C79.8315 199.79 79.8121 199.899 79.8159 200.008C79.8197 200.117 79.8466 200.225 79.8947 200.323C79.9429 200.421 80.0114 200.508 80.0955 200.577C80.1796 200.647 80.2776 200.698 80.383 200.728C82.227 201.207 83.1121 201.342 85.4048 202C86.8186 202.393 88.8347 203.125 90.7833 203.678C92.7318 204.231 93.3833 202.332 92.6273 201.926C89.2097 200.119 88.9392 198.853 88.0049 197.501C87.8376 197.256 87.5896 197.077 87.3042 196.996Z" fill="#4CAF4F"/>
<path d="M95.5531 198.73L91.1029 195.657C91.0274 195.602 90.9344 195.576 90.8415 195.585C90.7486 195.594 90.6623 195.637 90.5988 195.706L87.6484 198.877C87.5765 198.959 87.5229 199.056 87.4911 199.16C87.4593 199.264 87.4501 199.374 87.464 199.482C87.478 199.591 87.5148 199.694 87.572 199.787C87.6292 199.88 87.7056 199.96 87.7959 200.021C89.3633 201.072 90.1747 201.496 92.1355 202.854C93.3649 203.69 95.7437 205.547 97.4033 206.702C99.0629 207.858 100.298 206.272 99.7083 205.645C97.0652 202.824 96.4874 201.053 96.051 199.449C95.9752 199.158 95.7989 198.903 95.5531 198.73Z" fill="#4CAF4F"/>
<path d="M91.945 193.013L83.9235 189.024L84.7533 186.848L93.3218 191.053L91.945 193.013Z" fill="#4CAF4F"/>
<path d="M81.5139 117.827L80.8378 119.597C80.7702 119.732 80.93 119.873 81.1574 119.873H101.491C101.669 119.873 101.817 119.787 101.829 119.677L102.001 117.919C102.001 117.802 101.86 117.697 101.669 117.697H81.8336C81.7738 117.692 81.7137 117.701 81.658 117.723C81.6024 117.746 81.553 117.781 81.5139 117.827Z" fill="#4CAF4F"/>
<path opacity="0.4" d="M81.5139 117.827L80.8378 119.597C80.7702 119.732 80.93 119.873 81.1574 119.873H101.491C101.669 119.873 101.817 119.787 101.829 119.677L102.001 117.919C102.001 117.802 101.86 117.697 101.669 117.697H81.8336C81.7738 117.692 81.7137 117.701 81.658 117.723C81.6024 117.746 81.553 117.781 81.5139 117.827Z" fill="white"/>
<path d="M84.7164 120.046H84.1816C84.0772 120.046 83.9972 119.99 84.0034 119.923L84.2554 117.642C84.2554 117.581 84.3538 117.525 84.4582 117.525H84.993C85.0975 117.525 85.1774 117.581 85.1713 117.642L84.9193 119.923C84.9131 119.99 84.8209 120.046 84.7164 120.046Z" fill="#4CAF4F"/>
<path d="M97.2558 120.046H96.7272C96.6227 120.046 96.5428 119.99 96.5489 119.923L96.7948 117.642C96.7948 117.581 96.8993 117.525 97.0038 117.525H97.5324C97.6369 117.525 97.7229 117.581 97.7107 117.642L97.4648 119.923C97.4341 119.99 97.3664 120.046 97.2558 120.046Z" fill="#4CAF4F"/>
<g style="mix-blend-mode:multiply">
<path d="M84.2493 224.141C93.3438 224.141 100.716 223.607 100.716 222.948C100.716 222.29 93.3438 221.756 84.2493 221.756C75.1547 221.756 67.7821 222.29 67.7821 222.948C67.7821 223.607 75.1547 224.141 84.2493 224.141Z" fill="#F5F5F5"/>
</g>
<path d="M94.2808 221.264C91.3672 220.416 88.134 219.328 86.1793 218.191C86.124 218.154 86.0626 218.135 86.0072 218.105V204.914H91.902C92.3494 204.887 92.7699 204.691 93.0773 204.365C93.3848 204.038 93.556 203.607 93.556 203.159C93.556 202.711 93.3848 202.279 93.0773 201.953C92.7699 201.627 92.3494 201.43 91.902 201.404H86.038V141.276H82.4974V201.404H76.6396C76.4004 201.39 76.1608 201.425 75.9356 201.506C75.7104 201.588 75.5043 201.715 75.3299 201.88C75.1555 202.044 75.0166 202.242 74.9216 202.462C74.8267 202.682 74.7777 202.919 74.7777 203.159C74.7777 203.398 74.8267 203.635 74.9216 203.855C75.0166 204.075 75.1555 204.274 75.3299 204.438C75.5043 204.602 75.7104 204.729 75.9356 204.811C76.1608 204.893 76.4004 204.928 76.6396 204.914H82.4974V218.086C82.4421 218.086 82.3868 218.135 82.3315 218.172C80.3461 219.328 77.1375 220.416 74.2239 221.246C74.0271 221.305 73.8581 221.433 73.7475 221.606C73.6369 221.78 73.592 221.987 73.621 222.191C73.65 222.394 73.7509 222.581 73.9055 222.716C74.06 222.852 74.258 222.928 74.4636 222.93H94.041C94.2375 222.916 94.4235 222.836 94.5678 222.702C94.7122 222.568 94.8062 222.389 94.8343 222.194C94.8624 221.999 94.8227 221.8 94.722 221.631C94.6212 221.462 94.4655 221.332 94.2808 221.264Z" fill="#E0E0E0"/>
<path d="M95.1843 135.154H73.3265C71.568 135.154 70.1425 136.58 70.1425 138.338V144.835C70.1425 146.594 71.568 148.019 73.3265 148.019H95.1843C96.9428 148.019 98.3683 146.594 98.3683 144.835V138.338C98.3683 136.58 96.9428 135.154 95.1843 135.154Z" fill="#4CAF4F"/>
<path d="M73.1236 148.025V149.144C73.1236 150.066 74.1255 150.816 75.3549 150.816H93.1804C94.4098 150.816 95.4117 150.066 95.4117 149.144V148.025H73.1236Z" fill="#4CAF4F"/>
<path opacity="0.3" d="M73.1236 148.025V149.144C73.1236 150.066 74.1255 150.816 75.3549 150.816H93.1804C94.4098 150.816 95.4117 150.066 95.4117 149.144V148.025H73.1236Z" fill="white"/>
</svg>
