<svg width="14" height="13" viewBox="0 0 14 13" fill="none" xmlns="http://www.w3.org/2000/svg">
<g clip-path="url(#clip0_322_231)">
<path fill-rule="evenodd" clip-rule="evenodd" d="M12.4608 0.76669C12.6026 0.908499 12.6507 1.11901 12.5844 1.3083L8.93004 11.7493C8.85933 11.9514 8.67245 12.0898 8.45858 12.0985C8.2447 12.1072 8.04717 11.9845 7.96024 11.7889L5.95358 7.27392L1.43859 5.26726C1.24299 5.18032 1.12027 4.98279 1.129 4.76892C1.13772 4.55505 1.27612 4.36817 1.47816 4.29746L11.9192 0.643093C12.1085 0.576842 12.319 0.62488 12.4608 0.76669ZM6.97176 6.99403L8.37955 10.1616L10.8432 3.1226L6.97176 6.99403ZM10.1049 2.38431L3.06594 4.84794L6.23347 6.25573L10.1049 2.38431Z" fill="white"/>
</g>
<defs>
<clipPath id="clip0_322_231">
<rect width="12.5293" height="12.5293" fill="white" transform="translate(0.606506 0.0917969)"/>
</clipPath>
</defs>
</svg>
